%TF.GenerationSoftware,KiCad,Pcbnew,9.0.7*%
%TF.CreationDate,2026-03-06T17:58:22-07:00*%
%TF.ProjectId,digitizer,64696769-7469-47a6-9572-2e6b69636164,rev?*%
%TF.SameCoordinates,Original*%
%TF.FileFunction,Drillmap*%
%TF.FilePolarity,Positive*%
%FSLAX45Y45*%
G04 Gerber Fmt 4.5, Leading zero omitted, Abs format (unit mm)*
G04 Created by KiCad (PCBNEW 9.0.7) date 2026-03-06 17:58:22*
%MOMM*%
%LPD*%
G01*
G04 APERTURE LIST*
%ADD10C,0.050000*%
%ADD11C,0.100000*%
%ADD12C,0.200000*%
G04 APERTURE END LIST*
D10*
X2794000Y-2616200D02*
X28194000Y-2616200D01*
X28194000Y-28016200D01*
X2794000Y-28016200D01*
X2794000Y-2616200D01*
D11*
X27508200Y-16840200D02*
G75*
G02*
X26847800Y-16840200I-330200J0D01*
G01*
X26847800Y-16840200D02*
G75*
G02*
X27508200Y-16840200I330200J0D01*
G01*
X4140200Y-16840200D02*
G75*
G02*
X3479800Y-16840200I-330200J0D01*
G01*
X3479800Y-16840200D02*
G75*
G02*
X4140200Y-16840200I330200J0D01*
G01*
X13284200Y-3632200D02*
G75*
G02*
X12623800Y-3632200I-330200J0D01*
G01*
X12623800Y-3632200D02*
G75*
G02*
X13284200Y-3632200I330200J0D01*
G01*
X13284200Y-27000200D02*
G75*
G02*
X12623800Y-27000200I-330200J0D01*
G01*
X12623800Y-27000200D02*
G75*
G02*
X13284200Y-27000200I330200J0D01*
G01*
X4140200Y-27000200D02*
G75*
G02*
X3479800Y-27000200I-330200J0D01*
G01*
X3479800Y-27000200D02*
G75*
G02*
X4140200Y-27000200I330200J0D01*
G01*
X27508200Y-27000200D02*
G75*
G02*
X26847800Y-27000200I-330200J0D01*
G01*
X26847800Y-27000200D02*
G75*
G02*
X27508200Y-27000200I330200J0D01*
G01*
X27508200Y-3632200D02*
G75*
G02*
X26847800Y-3632200I-330200J0D01*
G01*
X26847800Y-3632200D02*
G75*
G02*
X27508200Y-3632200I330200J0D01*
G01*
X4140200Y-3632200D02*
G75*
G02*
X3479800Y-3632200I-330200J0D01*
G01*
X3479800Y-3632200D02*
G75*
G02*
X4140200Y-3632200I330200J0D01*
G01*
D12*
X3052277Y-28330184D02*
X3052277Y-28130184D01*
X3052277Y-28130184D02*
X3099896Y-28130184D01*
X3099896Y-28130184D02*
X3128467Y-28139708D01*
X3128467Y-28139708D02*
X3147515Y-28158755D01*
X3147515Y-28158755D02*
X3157039Y-28177803D01*
X3157039Y-28177803D02*
X3166562Y-28215898D01*
X3166562Y-28215898D02*
X3166562Y-28244469D01*
X3166562Y-28244469D02*
X3157039Y-28282565D01*
X3157039Y-28282565D02*
X3147515Y-28301612D01*
X3147515Y-28301612D02*
X3128467Y-28320660D01*
X3128467Y-28320660D02*
X3099896Y-28330184D01*
X3099896Y-28330184D02*
X3052277Y-28330184D01*
X3252277Y-28330184D02*
X3252277Y-28196850D01*
X3252277Y-28234946D02*
X3261801Y-28215898D01*
X3261801Y-28215898D02*
X3271324Y-28206374D01*
X3271324Y-28206374D02*
X3290372Y-28196850D01*
X3290372Y-28196850D02*
X3309420Y-28196850D01*
X3376086Y-28330184D02*
X3376086Y-28196850D01*
X3376086Y-28130184D02*
X3366562Y-28139708D01*
X3366562Y-28139708D02*
X3376086Y-28149231D01*
X3376086Y-28149231D02*
X3385610Y-28139708D01*
X3385610Y-28139708D02*
X3376086Y-28130184D01*
X3376086Y-28130184D02*
X3376086Y-28149231D01*
X3499896Y-28330184D02*
X3480848Y-28320660D01*
X3480848Y-28320660D02*
X3471324Y-28301612D01*
X3471324Y-28301612D02*
X3471324Y-28130184D01*
X3604658Y-28330184D02*
X3585610Y-28320660D01*
X3585610Y-28320660D02*
X3576086Y-28301612D01*
X3576086Y-28301612D02*
X3576086Y-28130184D01*
X3833229Y-28330184D02*
X3833229Y-28130184D01*
X3833229Y-28130184D02*
X3899896Y-28273041D01*
X3899896Y-28273041D02*
X3966562Y-28130184D01*
X3966562Y-28130184D02*
X3966562Y-28330184D01*
X4147515Y-28330184D02*
X4147515Y-28225422D01*
X4147515Y-28225422D02*
X4137991Y-28206374D01*
X4137991Y-28206374D02*
X4118943Y-28196850D01*
X4118943Y-28196850D02*
X4080848Y-28196850D01*
X4080848Y-28196850D02*
X4061801Y-28206374D01*
X4147515Y-28320660D02*
X4128467Y-28330184D01*
X4128467Y-28330184D02*
X4080848Y-28330184D01*
X4080848Y-28330184D02*
X4061801Y-28320660D01*
X4061801Y-28320660D02*
X4052277Y-28301612D01*
X4052277Y-28301612D02*
X4052277Y-28282565D01*
X4052277Y-28282565D02*
X4061801Y-28263517D01*
X4061801Y-28263517D02*
X4080848Y-28253993D01*
X4080848Y-28253993D02*
X4128467Y-28253993D01*
X4128467Y-28253993D02*
X4147515Y-28244469D01*
X4242753Y-28196850D02*
X4242753Y-28396850D01*
X4242753Y-28206374D02*
X4261801Y-28196850D01*
X4261801Y-28196850D02*
X4299896Y-28196850D01*
X4299896Y-28196850D02*
X4318944Y-28206374D01*
X4318944Y-28206374D02*
X4328467Y-28215898D01*
X4328467Y-28215898D02*
X4337991Y-28234946D01*
X4337991Y-28234946D02*
X4337991Y-28292088D01*
X4337991Y-28292088D02*
X4328467Y-28311136D01*
X4328467Y-28311136D02*
X4318944Y-28320660D01*
X4318944Y-28320660D02*
X4299896Y-28330184D01*
X4299896Y-28330184D02*
X4261801Y-28330184D01*
X4261801Y-28330184D02*
X4242753Y-28320660D01*
X4423705Y-28311136D02*
X4433229Y-28320660D01*
X4433229Y-28320660D02*
X4423705Y-28330184D01*
X4423705Y-28330184D02*
X4414182Y-28320660D01*
X4414182Y-28320660D02*
X4423705Y-28311136D01*
X4423705Y-28311136D02*
X4423705Y-28330184D01*
X4423705Y-28206374D02*
X4433229Y-28215898D01*
X4433229Y-28215898D02*
X4423705Y-28225422D01*
X4423705Y-28225422D02*
X4414182Y-28215898D01*
X4414182Y-28215898D02*
X4423705Y-28206374D01*
X4423705Y-28206374D02*
X4423705Y-28225422D01*
M02*
