%TF.GenerationSoftware,KiCad,Pcbnew,9.0.7*%
%TF.CreationDate,2026-03-06T17:58:22-07:00*%
%TF.ProjectId,digitizer,64696769-7469-47a6-9572-2e6b69636164,rev?*%
%TF.SameCoordinates,Original*%
%TF.FileFunction,Plated,1,2,PTH,Drill*%
%TF.FilePolarity,Positive*%
%FSLAX46Y46*%
G04 Gerber Fmt 4.6, Leading zero omitted, Abs format (unit mm)*
G04 Created by KiCad (PCBNEW 9.0.7) date 2026-03-06 17:58:22*
%MOMM*%
%LPD*%
G01*
G04 APERTURE LIST*
%TA.AperFunction,ViaDrill*%
%ADD10C,0.300000*%
%TD*%
%TA.AperFunction,ComponentDrill*%
%ADD11C,1.000000*%
%TD*%
G04 APERTURE END LIST*
D10*
X80010000Y-76962000D03*
X82550000Y-78232000D03*
X85090000Y-79502000D03*
X87630000Y-80772000D03*
X90170000Y-82042000D03*
X92710000Y-83312000D03*
X163830000Y-76962000D03*
X166370000Y-78232000D03*
X168910000Y-79502000D03*
X171450000Y-80772000D03*
X173990000Y-82042000D03*
X176530000Y-83312000D03*
X219710000Y-141732000D03*
X219710000Y-225552000D03*
X220980000Y-139192000D03*
X220980000Y-223012000D03*
X222250000Y-136779000D03*
X222250000Y-220472000D03*
X223520000Y-134112000D03*
X223520000Y-217932000D03*
X224790000Y-131572000D03*
X224790000Y-215392000D03*
X226060000Y-129032000D03*
X226060000Y-212852000D03*
D11*
%TO.C,J1_01*%
X48260000Y-97282000D03*
X48260000Y-99822000D03*
X48260000Y-102362000D03*
X48260000Y-104902000D03*
X48260000Y-107442000D03*
X48260000Y-109982000D03*
X48260000Y-112522000D03*
X48260000Y-115062000D03*
X48260000Y-117602000D03*
X48260000Y-120142000D03*
X48260000Y-122682000D03*
X48260000Y-125222000D03*
X48260000Y-127762000D03*
X48260000Y-130302000D03*
X48260000Y-132842000D03*
X48260000Y-135382000D03*
X48260000Y-137922000D03*
X48260000Y-140462000D03*
X48260000Y-143002000D03*
X48260000Y-145542000D03*
X48260000Y-148082000D03*
X48260000Y-150622000D03*
X48260000Y-153162000D03*
X48260000Y-155702000D03*
X48260000Y-158242000D03*
X48260000Y-160782000D03*
X48260000Y-163322000D03*
X48260000Y-165862000D03*
X48260000Y-168402000D03*
X48260000Y-170942000D03*
X48260000Y-173482000D03*
X48260000Y-176022000D03*
X48260000Y-178562000D03*
X48260000Y-181102000D03*
X48260000Y-183642000D03*
X48260000Y-186182000D03*
X48260000Y-188722000D03*
X48260000Y-191262000D03*
X48260000Y-193802000D03*
X48260000Y-196342000D03*
%TO.C,J2_01*%
X48260000Y-198882000D03*
X48260000Y-201422000D03*
X48260000Y-203962000D03*
X48260000Y-206502000D03*
X48260000Y-209042000D03*
X48260000Y-211582000D03*
X48260000Y-214122000D03*
X48260000Y-216662000D03*
X48260000Y-219202000D03*
X48260000Y-221742000D03*
X48260000Y-224282000D03*
X48260000Y-226822000D03*
X48260000Y-229362000D03*
X48260000Y-231902000D03*
X48260000Y-234442000D03*
X48260000Y-236982000D03*
X48260000Y-239522000D03*
X48260000Y-242062000D03*
X48260000Y-244602000D03*
X48260000Y-247142000D03*
X48260000Y-249682000D03*
X48260000Y-252222000D03*
X48260000Y-254762000D03*
X48260000Y-257302000D03*
%TO.C,J1_01*%
X50800000Y-97282000D03*
X50800000Y-99822000D03*
X50800000Y-102362000D03*
X50800000Y-104902000D03*
X50800000Y-107442000D03*
X50800000Y-109982000D03*
X50800000Y-112522000D03*
X50800000Y-115062000D03*
X50800000Y-117602000D03*
X50800000Y-120142000D03*
X50800000Y-122682000D03*
X50800000Y-125222000D03*
X50800000Y-127762000D03*
X50800000Y-130302000D03*
X50800000Y-132842000D03*
X50800000Y-135382000D03*
X50800000Y-137922000D03*
X50800000Y-140462000D03*
X50800000Y-143002000D03*
X50800000Y-145542000D03*
X50800000Y-148082000D03*
X50800000Y-150622000D03*
X50800000Y-153162000D03*
X50800000Y-155702000D03*
X50800000Y-158242000D03*
X50800000Y-160782000D03*
X50800000Y-163322000D03*
X50800000Y-165862000D03*
X50800000Y-168402000D03*
X50800000Y-170942000D03*
X50800000Y-173482000D03*
X50800000Y-176022000D03*
X50800000Y-178562000D03*
X50800000Y-181102000D03*
X50800000Y-183642000D03*
X50800000Y-186182000D03*
X50800000Y-188722000D03*
X50800000Y-191262000D03*
X50800000Y-193802000D03*
X50800000Y-196342000D03*
%TO.C,J2_01*%
X50800000Y-198882000D03*
X50800000Y-201422000D03*
X50800000Y-203962000D03*
X50800000Y-206502000D03*
X50800000Y-209042000D03*
X50800000Y-211582000D03*
X50800000Y-214122000D03*
X50800000Y-216662000D03*
X50800000Y-219202000D03*
X50800000Y-221742000D03*
X50800000Y-224282000D03*
X50800000Y-226822000D03*
X50800000Y-229362000D03*
X50800000Y-231902000D03*
X50800000Y-234442000D03*
X50800000Y-236982000D03*
X50800000Y-239522000D03*
X50800000Y-242062000D03*
X50800000Y-244602000D03*
X50800000Y-247142000D03*
X50800000Y-249682000D03*
X50800000Y-252222000D03*
X50800000Y-254762000D03*
X50800000Y-257302000D03*
%TO.C,J1_02*%
X53340000Y-97282000D03*
X53340000Y-99822000D03*
X53340000Y-102362000D03*
X53340000Y-104902000D03*
X53340000Y-107442000D03*
X53340000Y-109982000D03*
X53340000Y-112522000D03*
X53340000Y-115062000D03*
X53340000Y-117602000D03*
X53340000Y-120142000D03*
X53340000Y-122682000D03*
X53340000Y-125222000D03*
X53340000Y-127762000D03*
X53340000Y-130302000D03*
X53340000Y-132842000D03*
X53340000Y-135382000D03*
X53340000Y-137922000D03*
X53340000Y-140462000D03*
X53340000Y-143002000D03*
X53340000Y-145542000D03*
X53340000Y-148082000D03*
X53340000Y-150622000D03*
X53340000Y-153162000D03*
X53340000Y-155702000D03*
X53340000Y-158242000D03*
X53340000Y-160782000D03*
X53340000Y-163322000D03*
X53340000Y-165862000D03*
X53340000Y-168402000D03*
X53340000Y-170942000D03*
X53340000Y-173482000D03*
X53340000Y-176022000D03*
X53340000Y-178562000D03*
X53340000Y-181102000D03*
X53340000Y-183642000D03*
X53340000Y-186182000D03*
X53340000Y-188722000D03*
X53340000Y-191262000D03*
X53340000Y-193802000D03*
X53340000Y-196342000D03*
%TO.C,J2_02*%
X53340000Y-198882000D03*
X53340000Y-201422000D03*
X53340000Y-203962000D03*
X53340000Y-206502000D03*
X53340000Y-209042000D03*
X53340000Y-211582000D03*
X53340000Y-214122000D03*
X53340000Y-216662000D03*
X53340000Y-219202000D03*
X53340000Y-221742000D03*
X53340000Y-224282000D03*
X53340000Y-226822000D03*
X53340000Y-229362000D03*
X53340000Y-231902000D03*
X53340000Y-234442000D03*
X53340000Y-236982000D03*
X53340000Y-239522000D03*
X53340000Y-242062000D03*
X53340000Y-244602000D03*
X53340000Y-247142000D03*
X53340000Y-249682000D03*
X53340000Y-252222000D03*
X53340000Y-254762000D03*
X53340000Y-257302000D03*
%TO.C,J1_02*%
X55880000Y-97282000D03*
X55880000Y-99822000D03*
X55880000Y-102362000D03*
X55880000Y-104902000D03*
X55880000Y-107442000D03*
X55880000Y-109982000D03*
X55880000Y-112522000D03*
X55880000Y-115062000D03*
X55880000Y-117602000D03*
X55880000Y-120142000D03*
X55880000Y-122682000D03*
X55880000Y-125222000D03*
X55880000Y-127762000D03*
X55880000Y-130302000D03*
X55880000Y-132842000D03*
X55880000Y-135382000D03*
X55880000Y-137922000D03*
X55880000Y-140462000D03*
X55880000Y-143002000D03*
X55880000Y-145542000D03*
X55880000Y-148082000D03*
X55880000Y-150622000D03*
X55880000Y-153162000D03*
X55880000Y-155702000D03*
X55880000Y-158242000D03*
X55880000Y-160782000D03*
X55880000Y-163322000D03*
X55880000Y-165862000D03*
X55880000Y-168402000D03*
X55880000Y-170942000D03*
X55880000Y-173482000D03*
X55880000Y-176022000D03*
X55880000Y-178562000D03*
X55880000Y-181102000D03*
X55880000Y-183642000D03*
X55880000Y-186182000D03*
X55880000Y-188722000D03*
X55880000Y-191262000D03*
X55880000Y-193802000D03*
X55880000Y-196342000D03*
%TO.C,J2_02*%
X55880000Y-198882000D03*
X55880000Y-201422000D03*
X55880000Y-203962000D03*
X55880000Y-206502000D03*
X55880000Y-209042000D03*
X55880000Y-211582000D03*
X55880000Y-214122000D03*
X55880000Y-216662000D03*
X55880000Y-219202000D03*
X55880000Y-221742000D03*
X55880000Y-224282000D03*
X55880000Y-226822000D03*
X55880000Y-229362000D03*
X55880000Y-231902000D03*
X55880000Y-234442000D03*
X55880000Y-236982000D03*
X55880000Y-239522000D03*
X55880000Y-242062000D03*
X55880000Y-244602000D03*
X55880000Y-247142000D03*
X55880000Y-249682000D03*
X55880000Y-252222000D03*
X55880000Y-254762000D03*
X55880000Y-257302000D03*
%TO.C,J1_03*%
X58420000Y-97282000D03*
X58420000Y-99822000D03*
X58420000Y-102362000D03*
X58420000Y-104902000D03*
X58420000Y-107442000D03*
X58420000Y-109982000D03*
X58420000Y-112522000D03*
X58420000Y-115062000D03*
X58420000Y-117602000D03*
X58420000Y-120142000D03*
X58420000Y-122682000D03*
X58420000Y-125222000D03*
X58420000Y-127762000D03*
X58420000Y-130302000D03*
X58420000Y-132842000D03*
X58420000Y-135382000D03*
X58420000Y-137922000D03*
X58420000Y-140462000D03*
X58420000Y-143002000D03*
X58420000Y-145542000D03*
X58420000Y-148082000D03*
X58420000Y-150622000D03*
X58420000Y-153162000D03*
X58420000Y-155702000D03*
X58420000Y-158242000D03*
X58420000Y-160782000D03*
X58420000Y-163322000D03*
X58420000Y-165862000D03*
X58420000Y-168402000D03*
X58420000Y-170942000D03*
X58420000Y-173482000D03*
X58420000Y-176022000D03*
X58420000Y-178562000D03*
X58420000Y-181102000D03*
X58420000Y-183642000D03*
X58420000Y-186182000D03*
X58420000Y-188722000D03*
X58420000Y-191262000D03*
X58420000Y-193802000D03*
X58420000Y-196342000D03*
%TO.C,J2_03*%
X58420000Y-198882000D03*
X58420000Y-201422000D03*
X58420000Y-203962000D03*
X58420000Y-206502000D03*
X58420000Y-209042000D03*
X58420000Y-211582000D03*
X58420000Y-214122000D03*
X58420000Y-216662000D03*
X58420000Y-219202000D03*
X58420000Y-221742000D03*
X58420000Y-224282000D03*
X58420000Y-226822000D03*
X58420000Y-229362000D03*
X58420000Y-231902000D03*
X58420000Y-234442000D03*
X58420000Y-236982000D03*
X58420000Y-239522000D03*
X58420000Y-242062000D03*
X58420000Y-244602000D03*
X58420000Y-247142000D03*
X58420000Y-249682000D03*
X58420000Y-252222000D03*
X58420000Y-254762000D03*
X58420000Y-257302000D03*
%TO.C,J1_03*%
X60960000Y-97282000D03*
X60960000Y-99822000D03*
X60960000Y-102362000D03*
X60960000Y-104902000D03*
X60960000Y-107442000D03*
X60960000Y-109982000D03*
X60960000Y-112522000D03*
X60960000Y-115062000D03*
X60960000Y-117602000D03*
X60960000Y-120142000D03*
X60960000Y-122682000D03*
X60960000Y-125222000D03*
X60960000Y-127762000D03*
X60960000Y-130302000D03*
X60960000Y-132842000D03*
X60960000Y-135382000D03*
X60960000Y-137922000D03*
X60960000Y-140462000D03*
X60960000Y-143002000D03*
X60960000Y-145542000D03*
X60960000Y-148082000D03*
X60960000Y-150622000D03*
X60960000Y-153162000D03*
X60960000Y-155702000D03*
X60960000Y-158242000D03*
X60960000Y-160782000D03*
X60960000Y-163322000D03*
X60960000Y-165862000D03*
X60960000Y-168402000D03*
X60960000Y-170942000D03*
X60960000Y-173482000D03*
X60960000Y-176022000D03*
X60960000Y-178562000D03*
X60960000Y-181102000D03*
X60960000Y-183642000D03*
X60960000Y-186182000D03*
X60960000Y-188722000D03*
X60960000Y-191262000D03*
X60960000Y-193802000D03*
X60960000Y-196342000D03*
%TO.C,J2_03*%
X60960000Y-198882000D03*
X60960000Y-201422000D03*
X60960000Y-203962000D03*
X60960000Y-206502000D03*
X60960000Y-209042000D03*
X60960000Y-211582000D03*
X60960000Y-214122000D03*
X60960000Y-216662000D03*
X60960000Y-219202000D03*
X60960000Y-221742000D03*
X60960000Y-224282000D03*
X60960000Y-226822000D03*
X60960000Y-229362000D03*
X60960000Y-231902000D03*
X60960000Y-234442000D03*
X60960000Y-236982000D03*
X60960000Y-239522000D03*
X60960000Y-242062000D03*
X60960000Y-244602000D03*
X60960000Y-247142000D03*
X60960000Y-249682000D03*
X60960000Y-252222000D03*
X60960000Y-254762000D03*
X60960000Y-257302000D03*
%TO.C,J1_04*%
X63500000Y-97282000D03*
X63500000Y-99822000D03*
X63500000Y-102362000D03*
X63500000Y-104902000D03*
X63500000Y-107442000D03*
X63500000Y-109982000D03*
X63500000Y-112522000D03*
X63500000Y-115062000D03*
X63500000Y-117602000D03*
X63500000Y-120142000D03*
X63500000Y-122682000D03*
X63500000Y-125222000D03*
X63500000Y-127762000D03*
X63500000Y-130302000D03*
X63500000Y-132842000D03*
X63500000Y-135382000D03*
X63500000Y-137922000D03*
X63500000Y-140462000D03*
X63500000Y-143002000D03*
X63500000Y-145542000D03*
X63500000Y-148082000D03*
X63500000Y-150622000D03*
X63500000Y-153162000D03*
X63500000Y-155702000D03*
X63500000Y-158242000D03*
X63500000Y-160782000D03*
X63500000Y-163322000D03*
X63500000Y-165862000D03*
X63500000Y-168402000D03*
X63500000Y-170942000D03*
X63500000Y-173482000D03*
X63500000Y-176022000D03*
X63500000Y-178562000D03*
X63500000Y-181102000D03*
X63500000Y-183642000D03*
X63500000Y-186182000D03*
X63500000Y-188722000D03*
X63500000Y-191262000D03*
X63500000Y-193802000D03*
X63500000Y-196342000D03*
%TO.C,J2_04*%
X63500000Y-198882000D03*
X63500000Y-201422000D03*
X63500000Y-203962000D03*
X63500000Y-206502000D03*
X63500000Y-209042000D03*
X63500000Y-211582000D03*
X63500000Y-214122000D03*
X63500000Y-216662000D03*
X63500000Y-219202000D03*
X63500000Y-221742000D03*
X63500000Y-224282000D03*
X63500000Y-226822000D03*
X63500000Y-229362000D03*
X63500000Y-231902000D03*
X63500000Y-234442000D03*
X63500000Y-236982000D03*
X63500000Y-239522000D03*
X63500000Y-242062000D03*
X63500000Y-244602000D03*
X63500000Y-247142000D03*
X63500000Y-249682000D03*
X63500000Y-252222000D03*
X63500000Y-254762000D03*
X63500000Y-257302000D03*
%TO.C,J1_04*%
X66040000Y-97282000D03*
X66040000Y-99822000D03*
X66040000Y-102362000D03*
X66040000Y-104902000D03*
X66040000Y-107442000D03*
X66040000Y-109982000D03*
X66040000Y-112522000D03*
X66040000Y-115062000D03*
X66040000Y-117602000D03*
X66040000Y-120142000D03*
X66040000Y-122682000D03*
X66040000Y-125222000D03*
X66040000Y-127762000D03*
X66040000Y-130302000D03*
X66040000Y-132842000D03*
X66040000Y-135382000D03*
X66040000Y-137922000D03*
X66040000Y-140462000D03*
X66040000Y-143002000D03*
X66040000Y-145542000D03*
X66040000Y-148082000D03*
X66040000Y-150622000D03*
X66040000Y-153162000D03*
X66040000Y-155702000D03*
X66040000Y-158242000D03*
X66040000Y-160782000D03*
X66040000Y-163322000D03*
X66040000Y-165862000D03*
X66040000Y-168402000D03*
X66040000Y-170942000D03*
X66040000Y-173482000D03*
X66040000Y-176022000D03*
X66040000Y-178562000D03*
X66040000Y-181102000D03*
X66040000Y-183642000D03*
X66040000Y-186182000D03*
X66040000Y-188722000D03*
X66040000Y-191262000D03*
X66040000Y-193802000D03*
X66040000Y-196342000D03*
%TO.C,J2_04*%
X66040000Y-198882000D03*
X66040000Y-201422000D03*
X66040000Y-203962000D03*
X66040000Y-206502000D03*
X66040000Y-209042000D03*
X66040000Y-211582000D03*
X66040000Y-214122000D03*
X66040000Y-216662000D03*
X66040000Y-219202000D03*
X66040000Y-221742000D03*
X66040000Y-224282000D03*
X66040000Y-226822000D03*
X66040000Y-229362000D03*
X66040000Y-231902000D03*
X66040000Y-234442000D03*
X66040000Y-236982000D03*
X66040000Y-239522000D03*
X66040000Y-242062000D03*
X66040000Y-244602000D03*
X66040000Y-247142000D03*
X66040000Y-249682000D03*
X66040000Y-252222000D03*
X66040000Y-254762000D03*
X66040000Y-257302000D03*
%TO.C,J1_05*%
X68580000Y-97282000D03*
X68580000Y-99822000D03*
X68580000Y-102362000D03*
X68580000Y-104902000D03*
X68580000Y-107442000D03*
X68580000Y-109982000D03*
X68580000Y-112522000D03*
X68580000Y-115062000D03*
X68580000Y-117602000D03*
X68580000Y-120142000D03*
X68580000Y-122682000D03*
X68580000Y-125222000D03*
X68580000Y-127762000D03*
X68580000Y-130302000D03*
X68580000Y-132842000D03*
X68580000Y-135382000D03*
X68580000Y-137922000D03*
X68580000Y-140462000D03*
X68580000Y-143002000D03*
X68580000Y-145542000D03*
X68580000Y-148082000D03*
X68580000Y-150622000D03*
X68580000Y-153162000D03*
X68580000Y-155702000D03*
X68580000Y-158242000D03*
X68580000Y-160782000D03*
X68580000Y-163322000D03*
X68580000Y-165862000D03*
X68580000Y-168402000D03*
X68580000Y-170942000D03*
X68580000Y-173482000D03*
X68580000Y-176022000D03*
X68580000Y-178562000D03*
X68580000Y-181102000D03*
X68580000Y-183642000D03*
X68580000Y-186182000D03*
X68580000Y-188722000D03*
X68580000Y-191262000D03*
X68580000Y-193802000D03*
X68580000Y-196342000D03*
%TO.C,J2_05*%
X68580000Y-198882000D03*
X68580000Y-201422000D03*
X68580000Y-203962000D03*
X68580000Y-206502000D03*
X68580000Y-209042000D03*
X68580000Y-211582000D03*
X68580000Y-214122000D03*
X68580000Y-216662000D03*
X68580000Y-219202000D03*
X68580000Y-221742000D03*
X68580000Y-224282000D03*
X68580000Y-226822000D03*
X68580000Y-229362000D03*
X68580000Y-231902000D03*
X68580000Y-234442000D03*
X68580000Y-236982000D03*
X68580000Y-239522000D03*
X68580000Y-242062000D03*
X68580000Y-244602000D03*
X68580000Y-247142000D03*
X68580000Y-249682000D03*
X68580000Y-252222000D03*
X68580000Y-254762000D03*
X68580000Y-257302000D03*
%TO.C,J1_05*%
X71120000Y-97282000D03*
X71120000Y-99822000D03*
X71120000Y-102362000D03*
X71120000Y-104902000D03*
X71120000Y-107442000D03*
X71120000Y-109982000D03*
X71120000Y-112522000D03*
X71120000Y-115062000D03*
X71120000Y-117602000D03*
X71120000Y-120142000D03*
X71120000Y-122682000D03*
X71120000Y-125222000D03*
X71120000Y-127762000D03*
X71120000Y-130302000D03*
X71120000Y-132842000D03*
X71120000Y-135382000D03*
X71120000Y-137922000D03*
X71120000Y-140462000D03*
X71120000Y-143002000D03*
X71120000Y-145542000D03*
X71120000Y-148082000D03*
X71120000Y-150622000D03*
X71120000Y-153162000D03*
X71120000Y-155702000D03*
X71120000Y-158242000D03*
X71120000Y-160782000D03*
X71120000Y-163322000D03*
X71120000Y-165862000D03*
X71120000Y-168402000D03*
X71120000Y-170942000D03*
X71120000Y-173482000D03*
X71120000Y-176022000D03*
X71120000Y-178562000D03*
X71120000Y-181102000D03*
X71120000Y-183642000D03*
X71120000Y-186182000D03*
X71120000Y-188722000D03*
X71120000Y-191262000D03*
X71120000Y-193802000D03*
X71120000Y-196342000D03*
%TO.C,J2_05*%
X71120000Y-198882000D03*
X71120000Y-201422000D03*
X71120000Y-203962000D03*
X71120000Y-206502000D03*
X71120000Y-209042000D03*
X71120000Y-211582000D03*
X71120000Y-214122000D03*
X71120000Y-216662000D03*
X71120000Y-219202000D03*
X71120000Y-221742000D03*
X71120000Y-224282000D03*
X71120000Y-226822000D03*
X71120000Y-229362000D03*
X71120000Y-231902000D03*
X71120000Y-234442000D03*
X71120000Y-236982000D03*
X71120000Y-239522000D03*
X71120000Y-242062000D03*
X71120000Y-244602000D03*
X71120000Y-247142000D03*
X71120000Y-249682000D03*
X71120000Y-252222000D03*
X71120000Y-254762000D03*
X71120000Y-257302000D03*
%TO.C,J1_06*%
X73660000Y-97282000D03*
X73660000Y-99822000D03*
X73660000Y-102362000D03*
X73660000Y-104902000D03*
X73660000Y-107442000D03*
X73660000Y-109982000D03*
X73660000Y-112522000D03*
X73660000Y-115062000D03*
X73660000Y-117602000D03*
X73660000Y-120142000D03*
X73660000Y-122682000D03*
X73660000Y-125222000D03*
X73660000Y-127762000D03*
X73660000Y-130302000D03*
X73660000Y-132842000D03*
X73660000Y-135382000D03*
X73660000Y-137922000D03*
X73660000Y-140462000D03*
X73660000Y-143002000D03*
X73660000Y-145542000D03*
X73660000Y-148082000D03*
X73660000Y-150622000D03*
X73660000Y-153162000D03*
X73660000Y-155702000D03*
X73660000Y-158242000D03*
X73660000Y-160782000D03*
X73660000Y-163322000D03*
X73660000Y-165862000D03*
X73660000Y-168402000D03*
X73660000Y-170942000D03*
X73660000Y-173482000D03*
X73660000Y-176022000D03*
X73660000Y-178562000D03*
X73660000Y-181102000D03*
X73660000Y-183642000D03*
X73660000Y-186182000D03*
X73660000Y-188722000D03*
X73660000Y-191262000D03*
X73660000Y-193802000D03*
X73660000Y-196342000D03*
%TO.C,J2_06*%
X73660000Y-198882000D03*
X73660000Y-201422000D03*
X73660000Y-203962000D03*
X73660000Y-206502000D03*
X73660000Y-209042000D03*
X73660000Y-211582000D03*
X73660000Y-214122000D03*
X73660000Y-216662000D03*
X73660000Y-219202000D03*
X73660000Y-221742000D03*
X73660000Y-224282000D03*
X73660000Y-226822000D03*
X73660000Y-229362000D03*
X73660000Y-231902000D03*
X73660000Y-234442000D03*
X73660000Y-236982000D03*
X73660000Y-239522000D03*
X73660000Y-242062000D03*
X73660000Y-244602000D03*
X73660000Y-247142000D03*
X73660000Y-249682000D03*
X73660000Y-252222000D03*
X73660000Y-254762000D03*
X73660000Y-257302000D03*
%TO.C,P3_3*%
X76200000Y-49022000D03*
X76200000Y-51562000D03*
X76200000Y-54102000D03*
X76200000Y-56642000D03*
X76200000Y-59182000D03*
X76200000Y-61722000D03*
X76200000Y-64262000D03*
X76200000Y-66802000D03*
X76200000Y-69342000D03*
X76200000Y-71882000D03*
%TO.C,J1_06*%
X76200000Y-97282000D03*
X76200000Y-99822000D03*
X76200000Y-102362000D03*
X76200000Y-104902000D03*
X76200000Y-107442000D03*
X76200000Y-109982000D03*
X76200000Y-112522000D03*
X76200000Y-115062000D03*
X76200000Y-117602000D03*
X76200000Y-120142000D03*
X76200000Y-122682000D03*
X76200000Y-125222000D03*
X76200000Y-127762000D03*
X76200000Y-130302000D03*
X76200000Y-132842000D03*
X76200000Y-135382000D03*
X76200000Y-137922000D03*
X76200000Y-140462000D03*
X76200000Y-143002000D03*
X76200000Y-145542000D03*
X76200000Y-148082000D03*
X76200000Y-150622000D03*
X76200000Y-153162000D03*
X76200000Y-155702000D03*
X76200000Y-158242000D03*
X76200000Y-160782000D03*
X76200000Y-163322000D03*
X76200000Y-165862000D03*
X76200000Y-168402000D03*
X76200000Y-170942000D03*
X76200000Y-173482000D03*
X76200000Y-176022000D03*
X76200000Y-178562000D03*
X76200000Y-181102000D03*
X76200000Y-183642000D03*
X76200000Y-186182000D03*
X76200000Y-188722000D03*
X76200000Y-191262000D03*
X76200000Y-193802000D03*
X76200000Y-196342000D03*
%TO.C,J2_06*%
X76200000Y-198882000D03*
X76200000Y-201422000D03*
X76200000Y-203962000D03*
X76200000Y-206502000D03*
X76200000Y-209042000D03*
X76200000Y-211582000D03*
X76200000Y-214122000D03*
X76200000Y-216662000D03*
X76200000Y-219202000D03*
X76200000Y-221742000D03*
X76200000Y-224282000D03*
X76200000Y-226822000D03*
X76200000Y-229362000D03*
X76200000Y-231902000D03*
X76200000Y-234442000D03*
X76200000Y-236982000D03*
X76200000Y-239522000D03*
X76200000Y-242062000D03*
X76200000Y-244602000D03*
X76200000Y-247142000D03*
X76200000Y-249682000D03*
X76200000Y-252222000D03*
X76200000Y-254762000D03*
X76200000Y-257302000D03*
%TO.C,J1_07*%
X78740000Y-97282000D03*
X78740000Y-99822000D03*
X78740000Y-102362000D03*
X78740000Y-104902000D03*
X78740000Y-107442000D03*
X78740000Y-109982000D03*
X78740000Y-112522000D03*
X78740000Y-115062000D03*
X78740000Y-117602000D03*
X78740000Y-120142000D03*
X78740000Y-122682000D03*
X78740000Y-125222000D03*
X78740000Y-127762000D03*
X78740000Y-130302000D03*
X78740000Y-132842000D03*
X78740000Y-135382000D03*
X78740000Y-137922000D03*
X78740000Y-140462000D03*
X78740000Y-143002000D03*
X78740000Y-145542000D03*
X78740000Y-148082000D03*
X78740000Y-150622000D03*
X78740000Y-153162000D03*
X78740000Y-155702000D03*
X78740000Y-158242000D03*
X78740000Y-160782000D03*
X78740000Y-163322000D03*
X78740000Y-165862000D03*
X78740000Y-168402000D03*
X78740000Y-170942000D03*
X78740000Y-173482000D03*
X78740000Y-176022000D03*
X78740000Y-178562000D03*
X78740000Y-181102000D03*
X78740000Y-183642000D03*
X78740000Y-186182000D03*
X78740000Y-188722000D03*
X78740000Y-191262000D03*
X78740000Y-193802000D03*
X78740000Y-196342000D03*
%TO.C,J2_07*%
X78740000Y-198882000D03*
X78740000Y-201422000D03*
X78740000Y-203962000D03*
X78740000Y-206502000D03*
X78740000Y-209042000D03*
X78740000Y-211582000D03*
X78740000Y-214122000D03*
X78740000Y-216662000D03*
X78740000Y-219202000D03*
X78740000Y-221742000D03*
X78740000Y-224282000D03*
X78740000Y-226822000D03*
X78740000Y-229362000D03*
X78740000Y-231902000D03*
X78740000Y-234442000D03*
X78740000Y-236982000D03*
X78740000Y-239522000D03*
X78740000Y-242062000D03*
X78740000Y-244602000D03*
X78740000Y-247142000D03*
X78740000Y-249682000D03*
X78740000Y-252222000D03*
X78740000Y-254762000D03*
X78740000Y-257302000D03*
%TO.C,P1_3*%
X80010000Y-44399200D03*
%TO.C,J1_07*%
X81280000Y-97282000D03*
X81280000Y-99822000D03*
X81280000Y-102362000D03*
X81280000Y-104902000D03*
X81280000Y-107442000D03*
X81280000Y-109982000D03*
X81280000Y-112522000D03*
X81280000Y-115062000D03*
X81280000Y-117602000D03*
X81280000Y-120142000D03*
X81280000Y-122682000D03*
X81280000Y-125222000D03*
X81280000Y-127762000D03*
X81280000Y-130302000D03*
X81280000Y-132842000D03*
X81280000Y-135382000D03*
X81280000Y-137922000D03*
X81280000Y-140462000D03*
X81280000Y-143002000D03*
X81280000Y-145542000D03*
X81280000Y-148082000D03*
X81280000Y-150622000D03*
X81280000Y-153162000D03*
X81280000Y-155702000D03*
X81280000Y-158242000D03*
X81280000Y-160782000D03*
X81280000Y-163322000D03*
X81280000Y-165862000D03*
X81280000Y-168402000D03*
X81280000Y-170942000D03*
X81280000Y-173482000D03*
X81280000Y-176022000D03*
X81280000Y-178562000D03*
X81280000Y-181102000D03*
X81280000Y-183642000D03*
X81280000Y-186182000D03*
X81280000Y-188722000D03*
X81280000Y-191262000D03*
X81280000Y-193802000D03*
X81280000Y-196342000D03*
%TO.C,J2_07*%
X81280000Y-198882000D03*
X81280000Y-201422000D03*
X81280000Y-203962000D03*
X81280000Y-206502000D03*
X81280000Y-209042000D03*
X81280000Y-211582000D03*
X81280000Y-214122000D03*
X81280000Y-216662000D03*
X81280000Y-219202000D03*
X81280000Y-221742000D03*
X81280000Y-224282000D03*
X81280000Y-226822000D03*
X81280000Y-229362000D03*
X81280000Y-231902000D03*
X81280000Y-234442000D03*
X81280000Y-236982000D03*
X81280000Y-239522000D03*
X81280000Y-242062000D03*
X81280000Y-244602000D03*
X81280000Y-247142000D03*
X81280000Y-249682000D03*
X81280000Y-252222000D03*
X81280000Y-254762000D03*
X81280000Y-257302000D03*
%TO.C,P1_3*%
X82550000Y-44399200D03*
%TO.C,J1_08*%
X83820000Y-97282000D03*
X83820000Y-99822000D03*
X83820000Y-102362000D03*
X83820000Y-104902000D03*
X83820000Y-107442000D03*
X83820000Y-109982000D03*
X83820000Y-112522000D03*
X83820000Y-115062000D03*
X83820000Y-117602000D03*
X83820000Y-120142000D03*
X83820000Y-122682000D03*
X83820000Y-125222000D03*
X83820000Y-127762000D03*
X83820000Y-130302000D03*
X83820000Y-132842000D03*
X83820000Y-135382000D03*
X83820000Y-137922000D03*
X83820000Y-140462000D03*
X83820000Y-143002000D03*
X83820000Y-145542000D03*
X83820000Y-148082000D03*
X83820000Y-150622000D03*
X83820000Y-153162000D03*
X83820000Y-155702000D03*
X83820000Y-158242000D03*
X83820000Y-160782000D03*
X83820000Y-163322000D03*
X83820000Y-165862000D03*
X83820000Y-168402000D03*
X83820000Y-170942000D03*
X83820000Y-173482000D03*
X83820000Y-176022000D03*
X83820000Y-178562000D03*
X83820000Y-181102000D03*
X83820000Y-183642000D03*
X83820000Y-186182000D03*
X83820000Y-188722000D03*
X83820000Y-191262000D03*
X83820000Y-193802000D03*
X83820000Y-196342000D03*
%TO.C,J2_08*%
X83820000Y-198882000D03*
X83820000Y-201422000D03*
X83820000Y-203962000D03*
X83820000Y-206502000D03*
X83820000Y-209042000D03*
X83820000Y-211582000D03*
X83820000Y-214122000D03*
X83820000Y-216662000D03*
X83820000Y-219202000D03*
X83820000Y-221742000D03*
X83820000Y-224282000D03*
X83820000Y-226822000D03*
X83820000Y-229362000D03*
X83820000Y-231902000D03*
X83820000Y-234442000D03*
X83820000Y-236982000D03*
X83820000Y-239522000D03*
X83820000Y-242062000D03*
X83820000Y-244602000D03*
X83820000Y-247142000D03*
X83820000Y-249682000D03*
X83820000Y-252222000D03*
X83820000Y-254762000D03*
X83820000Y-257302000D03*
%TO.C,P1_3*%
X85090000Y-44399200D03*
%TO.C,J1_08*%
X86360000Y-97282000D03*
X86360000Y-99822000D03*
X86360000Y-102362000D03*
X86360000Y-104902000D03*
X86360000Y-107442000D03*
X86360000Y-109982000D03*
X86360000Y-112522000D03*
X86360000Y-115062000D03*
X86360000Y-117602000D03*
X86360000Y-120142000D03*
X86360000Y-122682000D03*
X86360000Y-125222000D03*
X86360000Y-127762000D03*
X86360000Y-130302000D03*
X86360000Y-132842000D03*
X86360000Y-135382000D03*
X86360000Y-137922000D03*
X86360000Y-140462000D03*
X86360000Y-143002000D03*
X86360000Y-145542000D03*
X86360000Y-148082000D03*
X86360000Y-150622000D03*
X86360000Y-153162000D03*
X86360000Y-155702000D03*
X86360000Y-158242000D03*
X86360000Y-160782000D03*
X86360000Y-163322000D03*
X86360000Y-165862000D03*
X86360000Y-168402000D03*
X86360000Y-170942000D03*
X86360000Y-173482000D03*
X86360000Y-176022000D03*
X86360000Y-178562000D03*
X86360000Y-181102000D03*
X86360000Y-183642000D03*
X86360000Y-186182000D03*
X86360000Y-188722000D03*
X86360000Y-191262000D03*
X86360000Y-193802000D03*
X86360000Y-196342000D03*
%TO.C,J2_08*%
X86360000Y-198882000D03*
X86360000Y-201422000D03*
X86360000Y-203962000D03*
X86360000Y-206502000D03*
X86360000Y-209042000D03*
X86360000Y-211582000D03*
X86360000Y-214122000D03*
X86360000Y-216662000D03*
X86360000Y-219202000D03*
X86360000Y-221742000D03*
X86360000Y-224282000D03*
X86360000Y-226822000D03*
X86360000Y-229362000D03*
X86360000Y-231902000D03*
X86360000Y-234442000D03*
X86360000Y-236982000D03*
X86360000Y-239522000D03*
X86360000Y-242062000D03*
X86360000Y-244602000D03*
X86360000Y-247142000D03*
X86360000Y-249682000D03*
X86360000Y-252222000D03*
X86360000Y-254762000D03*
X86360000Y-257302000D03*
%TO.C,P1_3*%
X87630000Y-44399200D03*
%TO.C,J1_09*%
X88900000Y-97282000D03*
X88900000Y-99822000D03*
X88900000Y-102362000D03*
X88900000Y-104902000D03*
X88900000Y-107442000D03*
X88900000Y-109982000D03*
X88900000Y-112522000D03*
X88900000Y-115062000D03*
X88900000Y-117602000D03*
X88900000Y-120142000D03*
X88900000Y-122682000D03*
X88900000Y-125222000D03*
X88900000Y-127762000D03*
X88900000Y-130302000D03*
X88900000Y-132842000D03*
X88900000Y-135382000D03*
X88900000Y-137922000D03*
X88900000Y-140462000D03*
X88900000Y-143002000D03*
X88900000Y-145542000D03*
X88900000Y-148082000D03*
X88900000Y-150622000D03*
X88900000Y-153162000D03*
X88900000Y-155702000D03*
X88900000Y-158242000D03*
X88900000Y-160782000D03*
X88900000Y-163322000D03*
X88900000Y-165862000D03*
X88900000Y-168402000D03*
X88900000Y-170942000D03*
X88900000Y-173482000D03*
X88900000Y-176022000D03*
X88900000Y-178562000D03*
X88900000Y-181102000D03*
X88900000Y-183642000D03*
X88900000Y-186182000D03*
X88900000Y-188722000D03*
X88900000Y-191262000D03*
X88900000Y-193802000D03*
X88900000Y-196342000D03*
%TO.C,J2_09*%
X88900000Y-198882000D03*
X88900000Y-201422000D03*
X88900000Y-203962000D03*
X88900000Y-206502000D03*
X88900000Y-209042000D03*
X88900000Y-211582000D03*
X88900000Y-214122000D03*
X88900000Y-216662000D03*
X88900000Y-219202000D03*
X88900000Y-221742000D03*
X88900000Y-224282000D03*
X88900000Y-226822000D03*
X88900000Y-229362000D03*
X88900000Y-231902000D03*
X88900000Y-234442000D03*
X88900000Y-236982000D03*
X88900000Y-239522000D03*
X88900000Y-242062000D03*
X88900000Y-244602000D03*
X88900000Y-247142000D03*
X88900000Y-249682000D03*
X88900000Y-252222000D03*
X88900000Y-254762000D03*
X88900000Y-257302000D03*
%TO.C,P1_3*%
X90170000Y-44399200D03*
%TO.C,J1_09*%
X91440000Y-97282000D03*
X91440000Y-99822000D03*
X91440000Y-102362000D03*
X91440000Y-104902000D03*
X91440000Y-107442000D03*
X91440000Y-109982000D03*
X91440000Y-112522000D03*
X91440000Y-115062000D03*
X91440000Y-117602000D03*
X91440000Y-120142000D03*
X91440000Y-122682000D03*
X91440000Y-125222000D03*
X91440000Y-127762000D03*
X91440000Y-130302000D03*
X91440000Y-132842000D03*
X91440000Y-135382000D03*
X91440000Y-137922000D03*
X91440000Y-140462000D03*
X91440000Y-143002000D03*
X91440000Y-145542000D03*
X91440000Y-148082000D03*
X91440000Y-150622000D03*
X91440000Y-153162000D03*
X91440000Y-155702000D03*
X91440000Y-158242000D03*
X91440000Y-160782000D03*
X91440000Y-163322000D03*
X91440000Y-165862000D03*
X91440000Y-168402000D03*
X91440000Y-170942000D03*
X91440000Y-173482000D03*
X91440000Y-176022000D03*
X91440000Y-178562000D03*
X91440000Y-181102000D03*
X91440000Y-183642000D03*
X91440000Y-186182000D03*
X91440000Y-188722000D03*
X91440000Y-191262000D03*
X91440000Y-193802000D03*
X91440000Y-196342000D03*
%TO.C,J2_09*%
X91440000Y-198882000D03*
X91440000Y-201422000D03*
X91440000Y-203962000D03*
X91440000Y-206502000D03*
X91440000Y-209042000D03*
X91440000Y-211582000D03*
X91440000Y-214122000D03*
X91440000Y-216662000D03*
X91440000Y-219202000D03*
X91440000Y-221742000D03*
X91440000Y-224282000D03*
X91440000Y-226822000D03*
X91440000Y-229362000D03*
X91440000Y-231902000D03*
X91440000Y-234442000D03*
X91440000Y-236982000D03*
X91440000Y-239522000D03*
X91440000Y-242062000D03*
X91440000Y-244602000D03*
X91440000Y-247142000D03*
X91440000Y-249682000D03*
X91440000Y-252222000D03*
X91440000Y-254762000D03*
X91440000Y-257302000D03*
%TO.C,P1_3*%
X92710000Y-44399200D03*
%TO.C,J1_10*%
X93980000Y-97282000D03*
X93980000Y-99822000D03*
X93980000Y-102362000D03*
X93980000Y-104902000D03*
X93980000Y-107442000D03*
X93980000Y-109982000D03*
X93980000Y-112522000D03*
X93980000Y-115062000D03*
X93980000Y-117602000D03*
X93980000Y-120142000D03*
X93980000Y-122682000D03*
X93980000Y-125222000D03*
X93980000Y-127762000D03*
X93980000Y-130302000D03*
X93980000Y-132842000D03*
X93980000Y-135382000D03*
X93980000Y-137922000D03*
X93980000Y-140462000D03*
X93980000Y-143002000D03*
X93980000Y-145542000D03*
X93980000Y-148082000D03*
X93980000Y-150622000D03*
X93980000Y-153162000D03*
X93980000Y-155702000D03*
X93980000Y-158242000D03*
X93980000Y-160782000D03*
X93980000Y-163322000D03*
X93980000Y-165862000D03*
X93980000Y-168402000D03*
X93980000Y-170942000D03*
X93980000Y-173482000D03*
X93980000Y-176022000D03*
X93980000Y-178562000D03*
X93980000Y-181102000D03*
X93980000Y-183642000D03*
X93980000Y-186182000D03*
X93980000Y-188722000D03*
X93980000Y-191262000D03*
X93980000Y-193802000D03*
X93980000Y-196342000D03*
%TO.C,J2_10*%
X93980000Y-198882000D03*
X93980000Y-201422000D03*
X93980000Y-203962000D03*
X93980000Y-206502000D03*
X93980000Y-209042000D03*
X93980000Y-211582000D03*
X93980000Y-214122000D03*
X93980000Y-216662000D03*
X93980000Y-219202000D03*
X93980000Y-221742000D03*
X93980000Y-224282000D03*
X93980000Y-226822000D03*
X93980000Y-229362000D03*
X93980000Y-231902000D03*
X93980000Y-234442000D03*
X93980000Y-236982000D03*
X93980000Y-239522000D03*
X93980000Y-242062000D03*
X93980000Y-244602000D03*
X93980000Y-247142000D03*
X93980000Y-249682000D03*
X93980000Y-252222000D03*
X93980000Y-254762000D03*
X93980000Y-257302000D03*
%TO.C,P4_3*%
X96520000Y-49022000D03*
X96520000Y-51562000D03*
X96520000Y-54102000D03*
X96520000Y-56642000D03*
X96520000Y-59182000D03*
X96520000Y-61722000D03*
X96520000Y-64262000D03*
X96520000Y-66802000D03*
X96520000Y-69342000D03*
X96520000Y-71882000D03*
%TO.C,J1_10*%
X96520000Y-97282000D03*
X96520000Y-99822000D03*
X96520000Y-102362000D03*
X96520000Y-104902000D03*
X96520000Y-107442000D03*
X96520000Y-109982000D03*
X96520000Y-112522000D03*
X96520000Y-115062000D03*
X96520000Y-117602000D03*
X96520000Y-120142000D03*
X96520000Y-122682000D03*
X96520000Y-125222000D03*
X96520000Y-127762000D03*
X96520000Y-130302000D03*
X96520000Y-132842000D03*
X96520000Y-135382000D03*
X96520000Y-137922000D03*
X96520000Y-140462000D03*
X96520000Y-143002000D03*
X96520000Y-145542000D03*
X96520000Y-148082000D03*
X96520000Y-150622000D03*
X96520000Y-153162000D03*
X96520000Y-155702000D03*
X96520000Y-158242000D03*
X96520000Y-160782000D03*
X96520000Y-163322000D03*
X96520000Y-165862000D03*
X96520000Y-168402000D03*
X96520000Y-170942000D03*
X96520000Y-173482000D03*
X96520000Y-176022000D03*
X96520000Y-178562000D03*
X96520000Y-181102000D03*
X96520000Y-183642000D03*
X96520000Y-186182000D03*
X96520000Y-188722000D03*
X96520000Y-191262000D03*
X96520000Y-193802000D03*
X96520000Y-196342000D03*
%TO.C,J2_10*%
X96520000Y-198882000D03*
X96520000Y-201422000D03*
X96520000Y-203962000D03*
X96520000Y-206502000D03*
X96520000Y-209042000D03*
X96520000Y-211582000D03*
X96520000Y-214122000D03*
X96520000Y-216662000D03*
X96520000Y-219202000D03*
X96520000Y-221742000D03*
X96520000Y-224282000D03*
X96520000Y-226822000D03*
X96520000Y-229362000D03*
X96520000Y-231902000D03*
X96520000Y-234442000D03*
X96520000Y-236982000D03*
X96520000Y-239522000D03*
X96520000Y-242062000D03*
X96520000Y-244602000D03*
X96520000Y-247142000D03*
X96520000Y-249682000D03*
X96520000Y-252222000D03*
X96520000Y-254762000D03*
X96520000Y-257302000D03*
%TO.C,J1_11*%
X99060000Y-97282000D03*
X99060000Y-99822000D03*
X99060000Y-102362000D03*
X99060000Y-104902000D03*
X99060000Y-107442000D03*
X99060000Y-109982000D03*
X99060000Y-112522000D03*
X99060000Y-115062000D03*
X99060000Y-117602000D03*
X99060000Y-120142000D03*
X99060000Y-122682000D03*
X99060000Y-125222000D03*
X99060000Y-127762000D03*
X99060000Y-130302000D03*
X99060000Y-132842000D03*
X99060000Y-135382000D03*
X99060000Y-137922000D03*
X99060000Y-140462000D03*
X99060000Y-143002000D03*
X99060000Y-145542000D03*
X99060000Y-148082000D03*
X99060000Y-150622000D03*
X99060000Y-153162000D03*
X99060000Y-155702000D03*
X99060000Y-158242000D03*
X99060000Y-160782000D03*
X99060000Y-163322000D03*
X99060000Y-165862000D03*
X99060000Y-168402000D03*
X99060000Y-170942000D03*
X99060000Y-173482000D03*
X99060000Y-176022000D03*
X99060000Y-178562000D03*
X99060000Y-181102000D03*
X99060000Y-183642000D03*
X99060000Y-186182000D03*
X99060000Y-188722000D03*
X99060000Y-191262000D03*
X99060000Y-193802000D03*
X99060000Y-196342000D03*
%TO.C,J2_11*%
X99060000Y-198882000D03*
X99060000Y-201422000D03*
X99060000Y-203962000D03*
X99060000Y-206502000D03*
X99060000Y-209042000D03*
X99060000Y-211582000D03*
X99060000Y-214122000D03*
X99060000Y-216662000D03*
X99060000Y-219202000D03*
X99060000Y-221742000D03*
X99060000Y-224282000D03*
X99060000Y-226822000D03*
X99060000Y-229362000D03*
X99060000Y-231902000D03*
X99060000Y-234442000D03*
X99060000Y-236982000D03*
X99060000Y-239522000D03*
X99060000Y-242062000D03*
X99060000Y-244602000D03*
X99060000Y-247142000D03*
X99060000Y-249682000D03*
X99060000Y-252222000D03*
X99060000Y-254762000D03*
X99060000Y-257302000D03*
%TO.C,J1_11*%
X101600000Y-97282000D03*
X101600000Y-99822000D03*
X101600000Y-102362000D03*
X101600000Y-104902000D03*
X101600000Y-107442000D03*
X101600000Y-109982000D03*
X101600000Y-112522000D03*
X101600000Y-115062000D03*
X101600000Y-117602000D03*
X101600000Y-120142000D03*
X101600000Y-122682000D03*
X101600000Y-125222000D03*
X101600000Y-127762000D03*
X101600000Y-130302000D03*
X101600000Y-132842000D03*
X101600000Y-135382000D03*
X101600000Y-137922000D03*
X101600000Y-140462000D03*
X101600000Y-143002000D03*
X101600000Y-145542000D03*
X101600000Y-148082000D03*
X101600000Y-150622000D03*
X101600000Y-153162000D03*
X101600000Y-155702000D03*
X101600000Y-158242000D03*
X101600000Y-160782000D03*
X101600000Y-163322000D03*
X101600000Y-165862000D03*
X101600000Y-168402000D03*
X101600000Y-170942000D03*
X101600000Y-173482000D03*
X101600000Y-176022000D03*
X101600000Y-178562000D03*
X101600000Y-181102000D03*
X101600000Y-183642000D03*
X101600000Y-186182000D03*
X101600000Y-188722000D03*
X101600000Y-191262000D03*
X101600000Y-193802000D03*
X101600000Y-196342000D03*
%TO.C,J2_11*%
X101600000Y-198882000D03*
X101600000Y-201422000D03*
X101600000Y-203962000D03*
X101600000Y-206502000D03*
X101600000Y-209042000D03*
X101600000Y-211582000D03*
X101600000Y-214122000D03*
X101600000Y-216662000D03*
X101600000Y-219202000D03*
X101600000Y-221742000D03*
X101600000Y-224282000D03*
X101600000Y-226822000D03*
X101600000Y-229362000D03*
X101600000Y-231902000D03*
X101600000Y-234442000D03*
X101600000Y-236982000D03*
X101600000Y-239522000D03*
X101600000Y-242062000D03*
X101600000Y-244602000D03*
X101600000Y-247142000D03*
X101600000Y-249682000D03*
X101600000Y-252222000D03*
X101600000Y-254762000D03*
X101600000Y-257302000D03*
%TO.C,J1_12*%
X104140000Y-97282000D03*
X104140000Y-99822000D03*
X104140000Y-102362000D03*
X104140000Y-104902000D03*
X104140000Y-107442000D03*
X104140000Y-109982000D03*
X104140000Y-112522000D03*
X104140000Y-115062000D03*
X104140000Y-117602000D03*
X104140000Y-120142000D03*
X104140000Y-122682000D03*
X104140000Y-125222000D03*
X104140000Y-127762000D03*
X104140000Y-130302000D03*
X104140000Y-132842000D03*
X104140000Y-135382000D03*
X104140000Y-137922000D03*
X104140000Y-140462000D03*
X104140000Y-143002000D03*
X104140000Y-145542000D03*
X104140000Y-148082000D03*
X104140000Y-150622000D03*
X104140000Y-153162000D03*
X104140000Y-155702000D03*
X104140000Y-158242000D03*
X104140000Y-160782000D03*
X104140000Y-163322000D03*
X104140000Y-165862000D03*
X104140000Y-168402000D03*
X104140000Y-170942000D03*
X104140000Y-173482000D03*
X104140000Y-176022000D03*
X104140000Y-178562000D03*
X104140000Y-181102000D03*
X104140000Y-183642000D03*
X104140000Y-186182000D03*
X104140000Y-188722000D03*
X104140000Y-191262000D03*
X104140000Y-193802000D03*
X104140000Y-196342000D03*
%TO.C,J2_12*%
X104140000Y-198882000D03*
X104140000Y-201422000D03*
X104140000Y-203962000D03*
X104140000Y-206502000D03*
X104140000Y-209042000D03*
X104140000Y-211582000D03*
X104140000Y-214122000D03*
X104140000Y-216662000D03*
X104140000Y-219202000D03*
X104140000Y-221742000D03*
X104140000Y-224282000D03*
X104140000Y-226822000D03*
X104140000Y-229362000D03*
X104140000Y-231902000D03*
X104140000Y-234442000D03*
X104140000Y-236982000D03*
X104140000Y-239522000D03*
X104140000Y-242062000D03*
X104140000Y-244602000D03*
X104140000Y-247142000D03*
X104140000Y-249682000D03*
X104140000Y-252222000D03*
X104140000Y-254762000D03*
X104140000Y-257302000D03*
%TO.C,J1_12*%
X106680000Y-97282000D03*
X106680000Y-99822000D03*
X106680000Y-102362000D03*
X106680000Y-104902000D03*
X106680000Y-107442000D03*
X106680000Y-109982000D03*
X106680000Y-112522000D03*
X106680000Y-115062000D03*
X106680000Y-117602000D03*
X106680000Y-120142000D03*
X106680000Y-122682000D03*
X106680000Y-125222000D03*
X106680000Y-127762000D03*
X106680000Y-130302000D03*
X106680000Y-132842000D03*
X106680000Y-135382000D03*
X106680000Y-137922000D03*
X106680000Y-140462000D03*
X106680000Y-143002000D03*
X106680000Y-145542000D03*
X106680000Y-148082000D03*
X106680000Y-150622000D03*
X106680000Y-153162000D03*
X106680000Y-155702000D03*
X106680000Y-158242000D03*
X106680000Y-160782000D03*
X106680000Y-163322000D03*
X106680000Y-165862000D03*
X106680000Y-168402000D03*
X106680000Y-170942000D03*
X106680000Y-173482000D03*
X106680000Y-176022000D03*
X106680000Y-178562000D03*
X106680000Y-181102000D03*
X106680000Y-183642000D03*
X106680000Y-186182000D03*
X106680000Y-188722000D03*
X106680000Y-191262000D03*
X106680000Y-193802000D03*
X106680000Y-196342000D03*
%TO.C,J2_12*%
X106680000Y-198882000D03*
X106680000Y-201422000D03*
X106680000Y-203962000D03*
X106680000Y-206502000D03*
X106680000Y-209042000D03*
X106680000Y-211582000D03*
X106680000Y-214122000D03*
X106680000Y-216662000D03*
X106680000Y-219202000D03*
X106680000Y-221742000D03*
X106680000Y-224282000D03*
X106680000Y-226822000D03*
X106680000Y-229362000D03*
X106680000Y-231902000D03*
X106680000Y-234442000D03*
X106680000Y-236982000D03*
X106680000Y-239522000D03*
X106680000Y-242062000D03*
X106680000Y-244602000D03*
X106680000Y-247142000D03*
X106680000Y-249682000D03*
X106680000Y-252222000D03*
X106680000Y-254762000D03*
X106680000Y-257302000D03*
%TO.C,J1_13*%
X109220000Y-97282000D03*
X109220000Y-99822000D03*
X109220000Y-102362000D03*
X109220000Y-104902000D03*
X109220000Y-107442000D03*
X109220000Y-109982000D03*
X109220000Y-112522000D03*
X109220000Y-115062000D03*
X109220000Y-117602000D03*
X109220000Y-120142000D03*
X109220000Y-122682000D03*
X109220000Y-125222000D03*
X109220000Y-127762000D03*
X109220000Y-130302000D03*
X109220000Y-132842000D03*
X109220000Y-135382000D03*
X109220000Y-137922000D03*
X109220000Y-140462000D03*
X109220000Y-143002000D03*
X109220000Y-145542000D03*
X109220000Y-148082000D03*
X109220000Y-150622000D03*
X109220000Y-153162000D03*
X109220000Y-155702000D03*
X109220000Y-158242000D03*
X109220000Y-160782000D03*
X109220000Y-163322000D03*
X109220000Y-165862000D03*
X109220000Y-168402000D03*
X109220000Y-170942000D03*
X109220000Y-173482000D03*
X109220000Y-176022000D03*
X109220000Y-178562000D03*
X109220000Y-181102000D03*
X109220000Y-183642000D03*
X109220000Y-186182000D03*
X109220000Y-188722000D03*
X109220000Y-191262000D03*
X109220000Y-193802000D03*
X109220000Y-196342000D03*
%TO.C,J2_13*%
X109220000Y-198882000D03*
X109220000Y-201422000D03*
X109220000Y-203962000D03*
X109220000Y-206502000D03*
X109220000Y-209042000D03*
X109220000Y-211582000D03*
X109220000Y-214122000D03*
X109220000Y-216662000D03*
X109220000Y-219202000D03*
X109220000Y-221742000D03*
X109220000Y-224282000D03*
X109220000Y-226822000D03*
X109220000Y-229362000D03*
X109220000Y-231902000D03*
X109220000Y-234442000D03*
X109220000Y-236982000D03*
X109220000Y-239522000D03*
X109220000Y-242062000D03*
X109220000Y-244602000D03*
X109220000Y-247142000D03*
X109220000Y-249682000D03*
X109220000Y-252222000D03*
X109220000Y-254762000D03*
X109220000Y-257302000D03*
%TO.C,J1_13*%
X111760000Y-97282000D03*
X111760000Y-99822000D03*
X111760000Y-102362000D03*
X111760000Y-104902000D03*
X111760000Y-107442000D03*
X111760000Y-109982000D03*
X111760000Y-112522000D03*
X111760000Y-115062000D03*
X111760000Y-117602000D03*
X111760000Y-120142000D03*
X111760000Y-122682000D03*
X111760000Y-125222000D03*
X111760000Y-127762000D03*
X111760000Y-130302000D03*
X111760000Y-132842000D03*
X111760000Y-135382000D03*
X111760000Y-137922000D03*
X111760000Y-140462000D03*
X111760000Y-143002000D03*
X111760000Y-145542000D03*
X111760000Y-148082000D03*
X111760000Y-150622000D03*
X111760000Y-153162000D03*
X111760000Y-155702000D03*
X111760000Y-158242000D03*
X111760000Y-160782000D03*
X111760000Y-163322000D03*
X111760000Y-165862000D03*
X111760000Y-168402000D03*
X111760000Y-170942000D03*
X111760000Y-173482000D03*
X111760000Y-176022000D03*
X111760000Y-178562000D03*
X111760000Y-181102000D03*
X111760000Y-183642000D03*
X111760000Y-186182000D03*
X111760000Y-188722000D03*
X111760000Y-191262000D03*
X111760000Y-193802000D03*
X111760000Y-196342000D03*
%TO.C,J2_13*%
X111760000Y-198882000D03*
X111760000Y-201422000D03*
X111760000Y-203962000D03*
X111760000Y-206502000D03*
X111760000Y-209042000D03*
X111760000Y-211582000D03*
X111760000Y-214122000D03*
X111760000Y-216662000D03*
X111760000Y-219202000D03*
X111760000Y-221742000D03*
X111760000Y-224282000D03*
X111760000Y-226822000D03*
X111760000Y-229362000D03*
X111760000Y-231902000D03*
X111760000Y-234442000D03*
X111760000Y-236982000D03*
X111760000Y-239522000D03*
X111760000Y-242062000D03*
X111760000Y-244602000D03*
X111760000Y-247142000D03*
X111760000Y-249682000D03*
X111760000Y-252222000D03*
X111760000Y-254762000D03*
X111760000Y-257302000D03*
%TO.C,J1_14*%
X114300000Y-97282000D03*
X114300000Y-99822000D03*
X114300000Y-102362000D03*
X114300000Y-104902000D03*
X114300000Y-107442000D03*
X114300000Y-109982000D03*
X114300000Y-112522000D03*
X114300000Y-115062000D03*
X114300000Y-117602000D03*
X114300000Y-120142000D03*
X114300000Y-122682000D03*
X114300000Y-125222000D03*
X114300000Y-127762000D03*
X114300000Y-130302000D03*
X114300000Y-132842000D03*
X114300000Y-135382000D03*
X114300000Y-137922000D03*
X114300000Y-140462000D03*
X114300000Y-143002000D03*
X114300000Y-145542000D03*
X114300000Y-148082000D03*
X114300000Y-150622000D03*
X114300000Y-153162000D03*
X114300000Y-155702000D03*
X114300000Y-158242000D03*
X114300000Y-160782000D03*
X114300000Y-163322000D03*
X114300000Y-165862000D03*
X114300000Y-168402000D03*
X114300000Y-170942000D03*
X114300000Y-173482000D03*
X114300000Y-176022000D03*
X114300000Y-178562000D03*
X114300000Y-181102000D03*
X114300000Y-183642000D03*
X114300000Y-186182000D03*
X114300000Y-188722000D03*
X114300000Y-191262000D03*
X114300000Y-193802000D03*
X114300000Y-196342000D03*
%TO.C,J2_14*%
X114300000Y-198882000D03*
X114300000Y-201422000D03*
X114300000Y-203962000D03*
X114300000Y-206502000D03*
X114300000Y-209042000D03*
X114300000Y-211582000D03*
X114300000Y-214122000D03*
X114300000Y-216662000D03*
X114300000Y-219202000D03*
X114300000Y-221742000D03*
X114300000Y-224282000D03*
X114300000Y-226822000D03*
X114300000Y-229362000D03*
X114300000Y-231902000D03*
X114300000Y-234442000D03*
X114300000Y-236982000D03*
X114300000Y-239522000D03*
X114300000Y-242062000D03*
X114300000Y-244602000D03*
X114300000Y-247142000D03*
X114300000Y-249682000D03*
X114300000Y-252222000D03*
X114300000Y-254762000D03*
X114300000Y-257302000D03*
%TO.C,J1_14*%
X116840000Y-97282000D03*
X116840000Y-99822000D03*
X116840000Y-102362000D03*
X116840000Y-104902000D03*
X116840000Y-107442000D03*
X116840000Y-109982000D03*
X116840000Y-112522000D03*
X116840000Y-115062000D03*
X116840000Y-117602000D03*
X116840000Y-120142000D03*
X116840000Y-122682000D03*
X116840000Y-125222000D03*
X116840000Y-127762000D03*
X116840000Y-130302000D03*
X116840000Y-132842000D03*
X116840000Y-135382000D03*
X116840000Y-137922000D03*
X116840000Y-140462000D03*
X116840000Y-143002000D03*
X116840000Y-145542000D03*
X116840000Y-148082000D03*
X116840000Y-150622000D03*
X116840000Y-153162000D03*
X116840000Y-155702000D03*
X116840000Y-158242000D03*
X116840000Y-160782000D03*
X116840000Y-163322000D03*
X116840000Y-165862000D03*
X116840000Y-168402000D03*
X116840000Y-170942000D03*
X116840000Y-173482000D03*
X116840000Y-176022000D03*
X116840000Y-178562000D03*
X116840000Y-181102000D03*
X116840000Y-183642000D03*
X116840000Y-186182000D03*
X116840000Y-188722000D03*
X116840000Y-191262000D03*
X116840000Y-193802000D03*
X116840000Y-196342000D03*
%TO.C,J2_14*%
X116840000Y-198882000D03*
X116840000Y-201422000D03*
X116840000Y-203962000D03*
X116840000Y-206502000D03*
X116840000Y-209042000D03*
X116840000Y-211582000D03*
X116840000Y-214122000D03*
X116840000Y-216662000D03*
X116840000Y-219202000D03*
X116840000Y-221742000D03*
X116840000Y-224282000D03*
X116840000Y-226822000D03*
X116840000Y-229362000D03*
X116840000Y-231902000D03*
X116840000Y-234442000D03*
X116840000Y-236982000D03*
X116840000Y-239522000D03*
X116840000Y-242062000D03*
X116840000Y-244602000D03*
X116840000Y-247142000D03*
X116840000Y-249682000D03*
X116840000Y-252222000D03*
X116840000Y-254762000D03*
X116840000Y-257302000D03*
%TO.C,J1_15*%
X119380000Y-97282000D03*
X119380000Y-99822000D03*
X119380000Y-102362000D03*
X119380000Y-104902000D03*
X119380000Y-107442000D03*
X119380000Y-109982000D03*
X119380000Y-112522000D03*
X119380000Y-115062000D03*
X119380000Y-117602000D03*
X119380000Y-120142000D03*
X119380000Y-122682000D03*
X119380000Y-125222000D03*
X119380000Y-127762000D03*
X119380000Y-130302000D03*
X119380000Y-132842000D03*
X119380000Y-135382000D03*
X119380000Y-137922000D03*
X119380000Y-140462000D03*
X119380000Y-143002000D03*
X119380000Y-145542000D03*
X119380000Y-148082000D03*
X119380000Y-150622000D03*
X119380000Y-153162000D03*
X119380000Y-155702000D03*
X119380000Y-158242000D03*
X119380000Y-160782000D03*
X119380000Y-163322000D03*
X119380000Y-165862000D03*
X119380000Y-168402000D03*
X119380000Y-170942000D03*
X119380000Y-173482000D03*
X119380000Y-176022000D03*
X119380000Y-178562000D03*
X119380000Y-181102000D03*
X119380000Y-183642000D03*
X119380000Y-186182000D03*
X119380000Y-188722000D03*
X119380000Y-191262000D03*
X119380000Y-193802000D03*
X119380000Y-196342000D03*
%TO.C,J2_15*%
X119380000Y-198882000D03*
X119380000Y-201422000D03*
X119380000Y-203962000D03*
X119380000Y-206502000D03*
X119380000Y-209042000D03*
X119380000Y-211582000D03*
X119380000Y-214122000D03*
X119380000Y-216662000D03*
X119380000Y-219202000D03*
X119380000Y-221742000D03*
X119380000Y-224282000D03*
X119380000Y-226822000D03*
X119380000Y-229362000D03*
X119380000Y-231902000D03*
X119380000Y-234442000D03*
X119380000Y-236982000D03*
X119380000Y-239522000D03*
X119380000Y-242062000D03*
X119380000Y-244602000D03*
X119380000Y-247142000D03*
X119380000Y-249682000D03*
X119380000Y-252222000D03*
X119380000Y-254762000D03*
X119380000Y-257302000D03*
%TO.C,J1_15*%
X121920000Y-97282000D03*
X121920000Y-99822000D03*
X121920000Y-102362000D03*
X121920000Y-104902000D03*
X121920000Y-107442000D03*
X121920000Y-109982000D03*
X121920000Y-112522000D03*
X121920000Y-115062000D03*
X121920000Y-117602000D03*
X121920000Y-120142000D03*
X121920000Y-122682000D03*
X121920000Y-125222000D03*
X121920000Y-127762000D03*
X121920000Y-130302000D03*
X121920000Y-132842000D03*
X121920000Y-135382000D03*
X121920000Y-137922000D03*
X121920000Y-140462000D03*
X121920000Y-143002000D03*
X121920000Y-145542000D03*
X121920000Y-148082000D03*
X121920000Y-150622000D03*
X121920000Y-153162000D03*
X121920000Y-155702000D03*
X121920000Y-158242000D03*
X121920000Y-160782000D03*
X121920000Y-163322000D03*
X121920000Y-165862000D03*
X121920000Y-168402000D03*
X121920000Y-170942000D03*
X121920000Y-173482000D03*
X121920000Y-176022000D03*
X121920000Y-178562000D03*
X121920000Y-181102000D03*
X121920000Y-183642000D03*
X121920000Y-186182000D03*
X121920000Y-188722000D03*
X121920000Y-191262000D03*
X121920000Y-193802000D03*
X121920000Y-196342000D03*
%TO.C,J2_15*%
X121920000Y-198882000D03*
X121920000Y-201422000D03*
X121920000Y-203962000D03*
X121920000Y-206502000D03*
X121920000Y-209042000D03*
X121920000Y-211582000D03*
X121920000Y-214122000D03*
X121920000Y-216662000D03*
X121920000Y-219202000D03*
X121920000Y-221742000D03*
X121920000Y-224282000D03*
X121920000Y-226822000D03*
X121920000Y-229362000D03*
X121920000Y-231902000D03*
X121920000Y-234442000D03*
X121920000Y-236982000D03*
X121920000Y-239522000D03*
X121920000Y-242062000D03*
X121920000Y-244602000D03*
X121920000Y-247142000D03*
X121920000Y-249682000D03*
X121920000Y-252222000D03*
X121920000Y-254762000D03*
X121920000Y-257302000D03*
%TO.C,J1_16*%
X124460000Y-97282000D03*
X124460000Y-99822000D03*
X124460000Y-102362000D03*
X124460000Y-104902000D03*
X124460000Y-107442000D03*
X124460000Y-109982000D03*
X124460000Y-112522000D03*
X124460000Y-115062000D03*
X124460000Y-117602000D03*
X124460000Y-120142000D03*
X124460000Y-122682000D03*
X124460000Y-125222000D03*
X124460000Y-127762000D03*
X124460000Y-130302000D03*
X124460000Y-132842000D03*
X124460000Y-135382000D03*
X124460000Y-137922000D03*
X124460000Y-140462000D03*
X124460000Y-143002000D03*
X124460000Y-145542000D03*
X124460000Y-148082000D03*
X124460000Y-150622000D03*
X124460000Y-153162000D03*
X124460000Y-155702000D03*
X124460000Y-158242000D03*
X124460000Y-160782000D03*
X124460000Y-163322000D03*
X124460000Y-165862000D03*
X124460000Y-168402000D03*
X124460000Y-170942000D03*
X124460000Y-173482000D03*
X124460000Y-176022000D03*
X124460000Y-178562000D03*
X124460000Y-181102000D03*
X124460000Y-183642000D03*
X124460000Y-186182000D03*
X124460000Y-188722000D03*
X124460000Y-191262000D03*
X124460000Y-193802000D03*
X124460000Y-196342000D03*
%TO.C,J2_16*%
X124460000Y-198882000D03*
X124460000Y-201422000D03*
X124460000Y-203962000D03*
X124460000Y-206502000D03*
X124460000Y-209042000D03*
X124460000Y-211582000D03*
X124460000Y-214122000D03*
X124460000Y-216662000D03*
X124460000Y-219202000D03*
X124460000Y-221742000D03*
X124460000Y-224282000D03*
X124460000Y-226822000D03*
X124460000Y-229362000D03*
X124460000Y-231902000D03*
X124460000Y-234442000D03*
X124460000Y-236982000D03*
X124460000Y-239522000D03*
X124460000Y-242062000D03*
X124460000Y-244602000D03*
X124460000Y-247142000D03*
X124460000Y-249682000D03*
X124460000Y-252222000D03*
X124460000Y-254762000D03*
X124460000Y-257302000D03*
%TO.C,J1_16*%
X127000000Y-97282000D03*
X127000000Y-99822000D03*
X127000000Y-102362000D03*
X127000000Y-104902000D03*
X127000000Y-107442000D03*
X127000000Y-109982000D03*
X127000000Y-112522000D03*
X127000000Y-115062000D03*
X127000000Y-117602000D03*
X127000000Y-120142000D03*
X127000000Y-122682000D03*
X127000000Y-125222000D03*
X127000000Y-127762000D03*
X127000000Y-130302000D03*
X127000000Y-132842000D03*
X127000000Y-135382000D03*
X127000000Y-137922000D03*
X127000000Y-140462000D03*
X127000000Y-143002000D03*
X127000000Y-145542000D03*
X127000000Y-148082000D03*
X127000000Y-150622000D03*
X127000000Y-153162000D03*
X127000000Y-155702000D03*
X127000000Y-158242000D03*
X127000000Y-160782000D03*
X127000000Y-163322000D03*
X127000000Y-165862000D03*
X127000000Y-168402000D03*
X127000000Y-170942000D03*
X127000000Y-173482000D03*
X127000000Y-176022000D03*
X127000000Y-178562000D03*
X127000000Y-181102000D03*
X127000000Y-183642000D03*
X127000000Y-186182000D03*
X127000000Y-188722000D03*
X127000000Y-191262000D03*
X127000000Y-193802000D03*
X127000000Y-196342000D03*
%TO.C,J2_16*%
X127000000Y-198882000D03*
X127000000Y-201422000D03*
X127000000Y-203962000D03*
X127000000Y-206502000D03*
X127000000Y-209042000D03*
X127000000Y-211582000D03*
X127000000Y-214122000D03*
X127000000Y-216662000D03*
X127000000Y-219202000D03*
X127000000Y-221742000D03*
X127000000Y-224282000D03*
X127000000Y-226822000D03*
X127000000Y-229362000D03*
X127000000Y-231902000D03*
X127000000Y-234442000D03*
X127000000Y-236982000D03*
X127000000Y-239522000D03*
X127000000Y-242062000D03*
X127000000Y-244602000D03*
X127000000Y-247142000D03*
X127000000Y-249682000D03*
X127000000Y-252222000D03*
X127000000Y-254762000D03*
X127000000Y-257302000D03*
%TO.C,J1_17*%
X129540000Y-97282000D03*
X129540000Y-99822000D03*
X129540000Y-102362000D03*
X129540000Y-104902000D03*
X129540000Y-107442000D03*
X129540000Y-109982000D03*
X129540000Y-112522000D03*
X129540000Y-115062000D03*
X129540000Y-117602000D03*
X129540000Y-120142000D03*
X129540000Y-122682000D03*
X129540000Y-125222000D03*
X129540000Y-127762000D03*
X129540000Y-130302000D03*
X129540000Y-132842000D03*
X129540000Y-135382000D03*
X129540000Y-137922000D03*
X129540000Y-140462000D03*
X129540000Y-143002000D03*
X129540000Y-145542000D03*
X129540000Y-148082000D03*
X129540000Y-150622000D03*
X129540000Y-153162000D03*
X129540000Y-155702000D03*
X129540000Y-158242000D03*
X129540000Y-160782000D03*
X129540000Y-163322000D03*
X129540000Y-165862000D03*
X129540000Y-168402000D03*
X129540000Y-170942000D03*
X129540000Y-173482000D03*
X129540000Y-176022000D03*
X129540000Y-178562000D03*
X129540000Y-181102000D03*
X129540000Y-183642000D03*
X129540000Y-186182000D03*
X129540000Y-188722000D03*
X129540000Y-191262000D03*
X129540000Y-193802000D03*
X129540000Y-196342000D03*
%TO.C,J2_17*%
X129540000Y-198882000D03*
X129540000Y-201422000D03*
X129540000Y-203962000D03*
X129540000Y-206502000D03*
X129540000Y-209042000D03*
X129540000Y-211582000D03*
X129540000Y-214122000D03*
X129540000Y-216662000D03*
X129540000Y-219202000D03*
X129540000Y-221742000D03*
X129540000Y-224282000D03*
X129540000Y-226822000D03*
X129540000Y-229362000D03*
X129540000Y-231902000D03*
X129540000Y-234442000D03*
X129540000Y-236982000D03*
X129540000Y-239522000D03*
X129540000Y-242062000D03*
X129540000Y-244602000D03*
X129540000Y-247142000D03*
X129540000Y-249682000D03*
X129540000Y-252222000D03*
X129540000Y-254762000D03*
X129540000Y-257302000D03*
%TO.C,J1_17*%
X132080000Y-97282000D03*
X132080000Y-99822000D03*
X132080000Y-102362000D03*
X132080000Y-104902000D03*
X132080000Y-107442000D03*
X132080000Y-109982000D03*
X132080000Y-112522000D03*
X132080000Y-115062000D03*
X132080000Y-117602000D03*
X132080000Y-120142000D03*
X132080000Y-122682000D03*
X132080000Y-125222000D03*
X132080000Y-127762000D03*
X132080000Y-130302000D03*
X132080000Y-132842000D03*
X132080000Y-135382000D03*
X132080000Y-137922000D03*
X132080000Y-140462000D03*
X132080000Y-143002000D03*
X132080000Y-145542000D03*
X132080000Y-148082000D03*
X132080000Y-150622000D03*
X132080000Y-153162000D03*
X132080000Y-155702000D03*
X132080000Y-158242000D03*
X132080000Y-160782000D03*
X132080000Y-163322000D03*
X132080000Y-165862000D03*
X132080000Y-168402000D03*
X132080000Y-170942000D03*
X132080000Y-173482000D03*
X132080000Y-176022000D03*
X132080000Y-178562000D03*
X132080000Y-181102000D03*
X132080000Y-183642000D03*
X132080000Y-186182000D03*
X132080000Y-188722000D03*
X132080000Y-191262000D03*
X132080000Y-193802000D03*
X132080000Y-196342000D03*
%TO.C,J2_17*%
X132080000Y-198882000D03*
X132080000Y-201422000D03*
X132080000Y-203962000D03*
X132080000Y-206502000D03*
X132080000Y-209042000D03*
X132080000Y-211582000D03*
X132080000Y-214122000D03*
X132080000Y-216662000D03*
X132080000Y-219202000D03*
X132080000Y-221742000D03*
X132080000Y-224282000D03*
X132080000Y-226822000D03*
X132080000Y-229362000D03*
X132080000Y-231902000D03*
X132080000Y-234442000D03*
X132080000Y-236982000D03*
X132080000Y-239522000D03*
X132080000Y-242062000D03*
X132080000Y-244602000D03*
X132080000Y-247142000D03*
X132080000Y-249682000D03*
X132080000Y-252222000D03*
X132080000Y-254762000D03*
X132080000Y-257302000D03*
%TO.C,J1_18*%
X134620000Y-97282000D03*
X134620000Y-99822000D03*
X134620000Y-102362000D03*
X134620000Y-104902000D03*
X134620000Y-107442000D03*
X134620000Y-109982000D03*
X134620000Y-112522000D03*
X134620000Y-115062000D03*
X134620000Y-117602000D03*
X134620000Y-120142000D03*
X134620000Y-122682000D03*
X134620000Y-125222000D03*
X134620000Y-127762000D03*
X134620000Y-130302000D03*
X134620000Y-132842000D03*
X134620000Y-135382000D03*
X134620000Y-137922000D03*
X134620000Y-140462000D03*
X134620000Y-143002000D03*
X134620000Y-145542000D03*
X134620000Y-148082000D03*
X134620000Y-150622000D03*
X134620000Y-153162000D03*
X134620000Y-155702000D03*
X134620000Y-158242000D03*
X134620000Y-160782000D03*
X134620000Y-163322000D03*
X134620000Y-165862000D03*
X134620000Y-168402000D03*
X134620000Y-170942000D03*
X134620000Y-173482000D03*
X134620000Y-176022000D03*
X134620000Y-178562000D03*
X134620000Y-181102000D03*
X134620000Y-183642000D03*
X134620000Y-186182000D03*
X134620000Y-188722000D03*
X134620000Y-191262000D03*
X134620000Y-193802000D03*
X134620000Y-196342000D03*
%TO.C,J2_18*%
X134620000Y-198882000D03*
X134620000Y-201422000D03*
X134620000Y-203962000D03*
X134620000Y-206502000D03*
X134620000Y-209042000D03*
X134620000Y-211582000D03*
X134620000Y-214122000D03*
X134620000Y-216662000D03*
X134620000Y-219202000D03*
X134620000Y-221742000D03*
X134620000Y-224282000D03*
X134620000Y-226822000D03*
X134620000Y-229362000D03*
X134620000Y-231902000D03*
X134620000Y-234442000D03*
X134620000Y-236982000D03*
X134620000Y-239522000D03*
X134620000Y-242062000D03*
X134620000Y-244602000D03*
X134620000Y-247142000D03*
X134620000Y-249682000D03*
X134620000Y-252222000D03*
X134620000Y-254762000D03*
X134620000Y-257302000D03*
%TO.C,J1_18*%
X137160000Y-97282000D03*
X137160000Y-99822000D03*
X137160000Y-102362000D03*
X137160000Y-104902000D03*
X137160000Y-107442000D03*
X137160000Y-109982000D03*
X137160000Y-112522000D03*
X137160000Y-115062000D03*
X137160000Y-117602000D03*
X137160000Y-120142000D03*
X137160000Y-122682000D03*
X137160000Y-125222000D03*
X137160000Y-127762000D03*
X137160000Y-130302000D03*
X137160000Y-132842000D03*
X137160000Y-135382000D03*
X137160000Y-137922000D03*
X137160000Y-140462000D03*
X137160000Y-143002000D03*
X137160000Y-145542000D03*
X137160000Y-148082000D03*
X137160000Y-150622000D03*
X137160000Y-153162000D03*
X137160000Y-155702000D03*
X137160000Y-158242000D03*
X137160000Y-160782000D03*
X137160000Y-163322000D03*
X137160000Y-165862000D03*
X137160000Y-168402000D03*
X137160000Y-170942000D03*
X137160000Y-173482000D03*
X137160000Y-176022000D03*
X137160000Y-178562000D03*
X137160000Y-181102000D03*
X137160000Y-183642000D03*
X137160000Y-186182000D03*
X137160000Y-188722000D03*
X137160000Y-191262000D03*
X137160000Y-193802000D03*
X137160000Y-196342000D03*
%TO.C,J2_18*%
X137160000Y-198882000D03*
X137160000Y-201422000D03*
X137160000Y-203962000D03*
X137160000Y-206502000D03*
X137160000Y-209042000D03*
X137160000Y-211582000D03*
X137160000Y-214122000D03*
X137160000Y-216662000D03*
X137160000Y-219202000D03*
X137160000Y-221742000D03*
X137160000Y-224282000D03*
X137160000Y-226822000D03*
X137160000Y-229362000D03*
X137160000Y-231902000D03*
X137160000Y-234442000D03*
X137160000Y-236982000D03*
X137160000Y-239522000D03*
X137160000Y-242062000D03*
X137160000Y-244602000D03*
X137160000Y-247142000D03*
X137160000Y-249682000D03*
X137160000Y-252222000D03*
X137160000Y-254762000D03*
X137160000Y-257302000D03*
%TO.C,J1_19*%
X139700000Y-97282000D03*
X139700000Y-99822000D03*
X139700000Y-102362000D03*
X139700000Y-104902000D03*
X139700000Y-107442000D03*
X139700000Y-109982000D03*
X139700000Y-112522000D03*
X139700000Y-115062000D03*
X139700000Y-117602000D03*
X139700000Y-120142000D03*
X139700000Y-122682000D03*
X139700000Y-125222000D03*
X139700000Y-127762000D03*
X139700000Y-130302000D03*
X139700000Y-132842000D03*
X139700000Y-135382000D03*
X139700000Y-137922000D03*
X139700000Y-140462000D03*
X139700000Y-143002000D03*
X139700000Y-145542000D03*
X139700000Y-148082000D03*
X139700000Y-150622000D03*
X139700000Y-153162000D03*
X139700000Y-155702000D03*
X139700000Y-158242000D03*
X139700000Y-160782000D03*
X139700000Y-163322000D03*
X139700000Y-165862000D03*
X139700000Y-168402000D03*
X139700000Y-170942000D03*
X139700000Y-173482000D03*
X139700000Y-176022000D03*
X139700000Y-178562000D03*
X139700000Y-181102000D03*
X139700000Y-183642000D03*
X139700000Y-186182000D03*
X139700000Y-188722000D03*
X139700000Y-191262000D03*
X139700000Y-193802000D03*
X139700000Y-196342000D03*
%TO.C,J2_19*%
X139700000Y-198882000D03*
X139700000Y-201422000D03*
X139700000Y-203962000D03*
X139700000Y-206502000D03*
X139700000Y-209042000D03*
X139700000Y-211582000D03*
X139700000Y-214122000D03*
X139700000Y-216662000D03*
X139700000Y-219202000D03*
X139700000Y-221742000D03*
X139700000Y-224282000D03*
X139700000Y-226822000D03*
X139700000Y-229362000D03*
X139700000Y-231902000D03*
X139700000Y-234442000D03*
X139700000Y-236982000D03*
X139700000Y-239522000D03*
X139700000Y-242062000D03*
X139700000Y-244602000D03*
X139700000Y-247142000D03*
X139700000Y-249682000D03*
X139700000Y-252222000D03*
X139700000Y-254762000D03*
X139700000Y-257302000D03*
%TO.C,J1_19*%
X142240000Y-97282000D03*
X142240000Y-99822000D03*
X142240000Y-102362000D03*
X142240000Y-104902000D03*
X142240000Y-107442000D03*
X142240000Y-109982000D03*
X142240000Y-112522000D03*
X142240000Y-115062000D03*
X142240000Y-117602000D03*
X142240000Y-120142000D03*
X142240000Y-122682000D03*
X142240000Y-125222000D03*
X142240000Y-127762000D03*
X142240000Y-130302000D03*
X142240000Y-132842000D03*
X142240000Y-135382000D03*
X142240000Y-137922000D03*
X142240000Y-140462000D03*
X142240000Y-143002000D03*
X142240000Y-145542000D03*
X142240000Y-148082000D03*
X142240000Y-150622000D03*
X142240000Y-153162000D03*
X142240000Y-155702000D03*
X142240000Y-158242000D03*
X142240000Y-160782000D03*
X142240000Y-163322000D03*
X142240000Y-165862000D03*
X142240000Y-168402000D03*
X142240000Y-170942000D03*
X142240000Y-173482000D03*
X142240000Y-176022000D03*
X142240000Y-178562000D03*
X142240000Y-181102000D03*
X142240000Y-183642000D03*
X142240000Y-186182000D03*
X142240000Y-188722000D03*
X142240000Y-191262000D03*
X142240000Y-193802000D03*
X142240000Y-196342000D03*
%TO.C,J2_19*%
X142240000Y-198882000D03*
X142240000Y-201422000D03*
X142240000Y-203962000D03*
X142240000Y-206502000D03*
X142240000Y-209042000D03*
X142240000Y-211582000D03*
X142240000Y-214122000D03*
X142240000Y-216662000D03*
X142240000Y-219202000D03*
X142240000Y-221742000D03*
X142240000Y-224282000D03*
X142240000Y-226822000D03*
X142240000Y-229362000D03*
X142240000Y-231902000D03*
X142240000Y-234442000D03*
X142240000Y-236982000D03*
X142240000Y-239522000D03*
X142240000Y-242062000D03*
X142240000Y-244602000D03*
X142240000Y-247142000D03*
X142240000Y-249682000D03*
X142240000Y-252222000D03*
X142240000Y-254762000D03*
X142240000Y-257302000D03*
%TO.C,J1_20*%
X144780000Y-97282000D03*
X144780000Y-99822000D03*
X144780000Y-102362000D03*
X144780000Y-104902000D03*
X144780000Y-107442000D03*
X144780000Y-109982000D03*
X144780000Y-112522000D03*
X144780000Y-115062000D03*
X144780000Y-117602000D03*
X144780000Y-120142000D03*
X144780000Y-122682000D03*
X144780000Y-125222000D03*
X144780000Y-127762000D03*
X144780000Y-130302000D03*
X144780000Y-132842000D03*
X144780000Y-135382000D03*
X144780000Y-137922000D03*
X144780000Y-140462000D03*
X144780000Y-143002000D03*
X144780000Y-145542000D03*
X144780000Y-148082000D03*
X144780000Y-150622000D03*
X144780000Y-153162000D03*
X144780000Y-155702000D03*
X144780000Y-158242000D03*
X144780000Y-160782000D03*
X144780000Y-163322000D03*
X144780000Y-165862000D03*
X144780000Y-168402000D03*
X144780000Y-170942000D03*
X144780000Y-173482000D03*
X144780000Y-176022000D03*
X144780000Y-178562000D03*
X144780000Y-181102000D03*
X144780000Y-183642000D03*
X144780000Y-186182000D03*
X144780000Y-188722000D03*
X144780000Y-191262000D03*
X144780000Y-193802000D03*
X144780000Y-196342000D03*
%TO.C,J2_20*%
X144780000Y-198882000D03*
X144780000Y-201422000D03*
X144780000Y-203962000D03*
X144780000Y-206502000D03*
X144780000Y-209042000D03*
X144780000Y-211582000D03*
X144780000Y-214122000D03*
X144780000Y-216662000D03*
X144780000Y-219202000D03*
X144780000Y-221742000D03*
X144780000Y-224282000D03*
X144780000Y-226822000D03*
X144780000Y-229362000D03*
X144780000Y-231902000D03*
X144780000Y-234442000D03*
X144780000Y-236982000D03*
X144780000Y-239522000D03*
X144780000Y-242062000D03*
X144780000Y-244602000D03*
X144780000Y-247142000D03*
X144780000Y-249682000D03*
X144780000Y-252222000D03*
X144780000Y-254762000D03*
X144780000Y-257302000D03*
%TO.C,J1_20*%
X147320000Y-97282000D03*
X147320000Y-99822000D03*
X147320000Y-102362000D03*
X147320000Y-104902000D03*
X147320000Y-107442000D03*
X147320000Y-109982000D03*
X147320000Y-112522000D03*
X147320000Y-115062000D03*
X147320000Y-117602000D03*
X147320000Y-120142000D03*
X147320000Y-122682000D03*
X147320000Y-125222000D03*
X147320000Y-127762000D03*
X147320000Y-130302000D03*
X147320000Y-132842000D03*
X147320000Y-135382000D03*
X147320000Y-137922000D03*
X147320000Y-140462000D03*
X147320000Y-143002000D03*
X147320000Y-145542000D03*
X147320000Y-148082000D03*
X147320000Y-150622000D03*
X147320000Y-153162000D03*
X147320000Y-155702000D03*
X147320000Y-158242000D03*
X147320000Y-160782000D03*
X147320000Y-163322000D03*
X147320000Y-165862000D03*
X147320000Y-168402000D03*
X147320000Y-170942000D03*
X147320000Y-173482000D03*
X147320000Y-176022000D03*
X147320000Y-178562000D03*
X147320000Y-181102000D03*
X147320000Y-183642000D03*
X147320000Y-186182000D03*
X147320000Y-188722000D03*
X147320000Y-191262000D03*
X147320000Y-193802000D03*
X147320000Y-196342000D03*
%TO.C,J2_20*%
X147320000Y-198882000D03*
X147320000Y-201422000D03*
X147320000Y-203962000D03*
X147320000Y-206502000D03*
X147320000Y-209042000D03*
X147320000Y-211582000D03*
X147320000Y-214122000D03*
X147320000Y-216662000D03*
X147320000Y-219202000D03*
X147320000Y-221742000D03*
X147320000Y-224282000D03*
X147320000Y-226822000D03*
X147320000Y-229362000D03*
X147320000Y-231902000D03*
X147320000Y-234442000D03*
X147320000Y-236982000D03*
X147320000Y-239522000D03*
X147320000Y-242062000D03*
X147320000Y-244602000D03*
X147320000Y-247142000D03*
X147320000Y-249682000D03*
X147320000Y-252222000D03*
X147320000Y-254762000D03*
X147320000Y-257302000D03*
%TO.C,J1_21*%
X149860000Y-97282000D03*
X149860000Y-99822000D03*
X149860000Y-102362000D03*
X149860000Y-104902000D03*
X149860000Y-107442000D03*
X149860000Y-109982000D03*
X149860000Y-112522000D03*
X149860000Y-115062000D03*
X149860000Y-117602000D03*
X149860000Y-120142000D03*
X149860000Y-122682000D03*
X149860000Y-125222000D03*
X149860000Y-127762000D03*
X149860000Y-130302000D03*
X149860000Y-132842000D03*
X149860000Y-135382000D03*
X149860000Y-137922000D03*
X149860000Y-140462000D03*
X149860000Y-143002000D03*
X149860000Y-145542000D03*
X149860000Y-148082000D03*
X149860000Y-150622000D03*
X149860000Y-153162000D03*
X149860000Y-155702000D03*
X149860000Y-158242000D03*
X149860000Y-160782000D03*
X149860000Y-163322000D03*
X149860000Y-165862000D03*
X149860000Y-168402000D03*
X149860000Y-170942000D03*
X149860000Y-173482000D03*
X149860000Y-176022000D03*
X149860000Y-178562000D03*
X149860000Y-181102000D03*
X149860000Y-183642000D03*
X149860000Y-186182000D03*
X149860000Y-188722000D03*
X149860000Y-191262000D03*
X149860000Y-193802000D03*
X149860000Y-196342000D03*
%TO.C,J2_21*%
X149860000Y-198882000D03*
X149860000Y-201422000D03*
X149860000Y-203962000D03*
X149860000Y-206502000D03*
X149860000Y-209042000D03*
X149860000Y-211582000D03*
X149860000Y-214122000D03*
X149860000Y-216662000D03*
X149860000Y-219202000D03*
X149860000Y-221742000D03*
X149860000Y-224282000D03*
X149860000Y-226822000D03*
X149860000Y-229362000D03*
X149860000Y-231902000D03*
X149860000Y-234442000D03*
X149860000Y-236982000D03*
X149860000Y-239522000D03*
X149860000Y-242062000D03*
X149860000Y-244602000D03*
X149860000Y-247142000D03*
X149860000Y-249682000D03*
X149860000Y-252222000D03*
X149860000Y-254762000D03*
X149860000Y-257302000D03*
%TO.C,J1_21*%
X152400000Y-97282000D03*
X152400000Y-99822000D03*
X152400000Y-102362000D03*
X152400000Y-104902000D03*
X152400000Y-107442000D03*
X152400000Y-109982000D03*
X152400000Y-112522000D03*
X152400000Y-115062000D03*
X152400000Y-117602000D03*
X152400000Y-120142000D03*
X152400000Y-122682000D03*
X152400000Y-125222000D03*
X152400000Y-127762000D03*
X152400000Y-130302000D03*
X152400000Y-132842000D03*
X152400000Y-135382000D03*
X152400000Y-137922000D03*
X152400000Y-140462000D03*
X152400000Y-143002000D03*
X152400000Y-145542000D03*
X152400000Y-148082000D03*
X152400000Y-150622000D03*
X152400000Y-153162000D03*
X152400000Y-155702000D03*
X152400000Y-158242000D03*
X152400000Y-160782000D03*
X152400000Y-163322000D03*
X152400000Y-165862000D03*
X152400000Y-168402000D03*
X152400000Y-170942000D03*
X152400000Y-173482000D03*
X152400000Y-176022000D03*
X152400000Y-178562000D03*
X152400000Y-181102000D03*
X152400000Y-183642000D03*
X152400000Y-186182000D03*
X152400000Y-188722000D03*
X152400000Y-191262000D03*
X152400000Y-193802000D03*
X152400000Y-196342000D03*
%TO.C,J2_21*%
X152400000Y-198882000D03*
X152400000Y-201422000D03*
X152400000Y-203962000D03*
X152400000Y-206502000D03*
X152400000Y-209042000D03*
X152400000Y-211582000D03*
X152400000Y-214122000D03*
X152400000Y-216662000D03*
X152400000Y-219202000D03*
X152400000Y-221742000D03*
X152400000Y-224282000D03*
X152400000Y-226822000D03*
X152400000Y-229362000D03*
X152400000Y-231902000D03*
X152400000Y-234442000D03*
X152400000Y-236982000D03*
X152400000Y-239522000D03*
X152400000Y-242062000D03*
X152400000Y-244602000D03*
X152400000Y-247142000D03*
X152400000Y-249682000D03*
X152400000Y-252222000D03*
X152400000Y-254762000D03*
X152400000Y-257302000D03*
%TO.C,J1_22*%
X154940000Y-97282000D03*
X154940000Y-99822000D03*
X154940000Y-102362000D03*
X154940000Y-104902000D03*
X154940000Y-107442000D03*
X154940000Y-109982000D03*
X154940000Y-112522000D03*
X154940000Y-115062000D03*
X154940000Y-117602000D03*
X154940000Y-120142000D03*
X154940000Y-122682000D03*
X154940000Y-125222000D03*
X154940000Y-127762000D03*
X154940000Y-130302000D03*
X154940000Y-132842000D03*
X154940000Y-135382000D03*
X154940000Y-137922000D03*
X154940000Y-140462000D03*
X154940000Y-143002000D03*
X154940000Y-145542000D03*
X154940000Y-148082000D03*
X154940000Y-150622000D03*
X154940000Y-153162000D03*
X154940000Y-155702000D03*
X154940000Y-158242000D03*
X154940000Y-160782000D03*
X154940000Y-163322000D03*
X154940000Y-165862000D03*
X154940000Y-168402000D03*
X154940000Y-170942000D03*
X154940000Y-173482000D03*
X154940000Y-176022000D03*
X154940000Y-178562000D03*
X154940000Y-181102000D03*
X154940000Y-183642000D03*
X154940000Y-186182000D03*
X154940000Y-188722000D03*
X154940000Y-191262000D03*
X154940000Y-193802000D03*
X154940000Y-196342000D03*
%TO.C,J2_22*%
X154940000Y-198882000D03*
X154940000Y-201422000D03*
X154940000Y-203962000D03*
X154940000Y-206502000D03*
X154940000Y-209042000D03*
X154940000Y-211582000D03*
X154940000Y-214122000D03*
X154940000Y-216662000D03*
X154940000Y-219202000D03*
X154940000Y-221742000D03*
X154940000Y-224282000D03*
X154940000Y-226822000D03*
X154940000Y-229362000D03*
X154940000Y-231902000D03*
X154940000Y-234442000D03*
X154940000Y-236982000D03*
X154940000Y-239522000D03*
X154940000Y-242062000D03*
X154940000Y-244602000D03*
X154940000Y-247142000D03*
X154940000Y-249682000D03*
X154940000Y-252222000D03*
X154940000Y-254762000D03*
X154940000Y-257302000D03*
%TO.C,J1_22*%
X157480000Y-97282000D03*
X157480000Y-99822000D03*
X157480000Y-102362000D03*
X157480000Y-104902000D03*
X157480000Y-107442000D03*
X157480000Y-109982000D03*
X157480000Y-112522000D03*
X157480000Y-115062000D03*
X157480000Y-117602000D03*
X157480000Y-120142000D03*
X157480000Y-122682000D03*
X157480000Y-125222000D03*
X157480000Y-127762000D03*
X157480000Y-130302000D03*
X157480000Y-132842000D03*
X157480000Y-135382000D03*
X157480000Y-137922000D03*
X157480000Y-140462000D03*
X157480000Y-143002000D03*
X157480000Y-145542000D03*
X157480000Y-148082000D03*
X157480000Y-150622000D03*
X157480000Y-153162000D03*
X157480000Y-155702000D03*
X157480000Y-158242000D03*
X157480000Y-160782000D03*
X157480000Y-163322000D03*
X157480000Y-165862000D03*
X157480000Y-168402000D03*
X157480000Y-170942000D03*
X157480000Y-173482000D03*
X157480000Y-176022000D03*
X157480000Y-178562000D03*
X157480000Y-181102000D03*
X157480000Y-183642000D03*
X157480000Y-186182000D03*
X157480000Y-188722000D03*
X157480000Y-191262000D03*
X157480000Y-193802000D03*
X157480000Y-196342000D03*
%TO.C,J2_22*%
X157480000Y-198882000D03*
X157480000Y-201422000D03*
X157480000Y-203962000D03*
X157480000Y-206502000D03*
X157480000Y-209042000D03*
X157480000Y-211582000D03*
X157480000Y-214122000D03*
X157480000Y-216662000D03*
X157480000Y-219202000D03*
X157480000Y-221742000D03*
X157480000Y-224282000D03*
X157480000Y-226822000D03*
X157480000Y-229362000D03*
X157480000Y-231902000D03*
X157480000Y-234442000D03*
X157480000Y-236982000D03*
X157480000Y-239522000D03*
X157480000Y-242062000D03*
X157480000Y-244602000D03*
X157480000Y-247142000D03*
X157480000Y-249682000D03*
X157480000Y-252222000D03*
X157480000Y-254762000D03*
X157480000Y-257302000D03*
%TO.C,P3_4*%
X160020000Y-48971200D03*
X160020000Y-51511200D03*
X160020000Y-54051200D03*
X160020000Y-56591200D03*
X160020000Y-59131200D03*
X160020000Y-61671200D03*
X160020000Y-64211200D03*
X160020000Y-66751200D03*
X160020000Y-69291200D03*
X160020000Y-71831200D03*
%TO.C,J1_23*%
X160020000Y-97282000D03*
X160020000Y-99822000D03*
X160020000Y-102362000D03*
X160020000Y-104902000D03*
X160020000Y-107442000D03*
X160020000Y-109982000D03*
X160020000Y-112522000D03*
X160020000Y-115062000D03*
X160020000Y-117602000D03*
X160020000Y-120142000D03*
X160020000Y-122682000D03*
X160020000Y-125222000D03*
X160020000Y-127762000D03*
X160020000Y-130302000D03*
X160020000Y-132842000D03*
X160020000Y-135382000D03*
X160020000Y-137922000D03*
X160020000Y-140462000D03*
X160020000Y-143002000D03*
X160020000Y-145542000D03*
X160020000Y-148082000D03*
X160020000Y-150622000D03*
X160020000Y-153162000D03*
X160020000Y-155702000D03*
X160020000Y-158242000D03*
X160020000Y-160782000D03*
X160020000Y-163322000D03*
X160020000Y-165862000D03*
X160020000Y-168402000D03*
X160020000Y-170942000D03*
X160020000Y-173482000D03*
X160020000Y-176022000D03*
X160020000Y-178562000D03*
X160020000Y-181102000D03*
X160020000Y-183642000D03*
X160020000Y-186182000D03*
X160020000Y-188722000D03*
X160020000Y-191262000D03*
X160020000Y-193802000D03*
X160020000Y-196342000D03*
%TO.C,J2_23*%
X160020000Y-198882000D03*
X160020000Y-201422000D03*
X160020000Y-203962000D03*
X160020000Y-206502000D03*
X160020000Y-209042000D03*
X160020000Y-211582000D03*
X160020000Y-214122000D03*
X160020000Y-216662000D03*
X160020000Y-219202000D03*
X160020000Y-221742000D03*
X160020000Y-224282000D03*
X160020000Y-226822000D03*
X160020000Y-229362000D03*
X160020000Y-231902000D03*
X160020000Y-234442000D03*
X160020000Y-236982000D03*
X160020000Y-239522000D03*
X160020000Y-242062000D03*
X160020000Y-244602000D03*
X160020000Y-247142000D03*
X160020000Y-249682000D03*
X160020000Y-252222000D03*
X160020000Y-254762000D03*
X160020000Y-257302000D03*
%TO.C,J1_23*%
X162560000Y-97282000D03*
X162560000Y-99822000D03*
X162560000Y-102362000D03*
X162560000Y-104902000D03*
X162560000Y-107442000D03*
X162560000Y-109982000D03*
X162560000Y-112522000D03*
X162560000Y-115062000D03*
X162560000Y-117602000D03*
X162560000Y-120142000D03*
X162560000Y-122682000D03*
X162560000Y-125222000D03*
X162560000Y-127762000D03*
X162560000Y-130302000D03*
X162560000Y-132842000D03*
X162560000Y-135382000D03*
X162560000Y-137922000D03*
X162560000Y-140462000D03*
X162560000Y-143002000D03*
X162560000Y-145542000D03*
X162560000Y-148082000D03*
X162560000Y-150622000D03*
X162560000Y-153162000D03*
X162560000Y-155702000D03*
X162560000Y-158242000D03*
X162560000Y-160782000D03*
X162560000Y-163322000D03*
X162560000Y-165862000D03*
X162560000Y-168402000D03*
X162560000Y-170942000D03*
X162560000Y-173482000D03*
X162560000Y-176022000D03*
X162560000Y-178562000D03*
X162560000Y-181102000D03*
X162560000Y-183642000D03*
X162560000Y-186182000D03*
X162560000Y-188722000D03*
X162560000Y-191262000D03*
X162560000Y-193802000D03*
X162560000Y-196342000D03*
%TO.C,J2_23*%
X162560000Y-198882000D03*
X162560000Y-201422000D03*
X162560000Y-203962000D03*
X162560000Y-206502000D03*
X162560000Y-209042000D03*
X162560000Y-211582000D03*
X162560000Y-214122000D03*
X162560000Y-216662000D03*
X162560000Y-219202000D03*
X162560000Y-221742000D03*
X162560000Y-224282000D03*
X162560000Y-226822000D03*
X162560000Y-229362000D03*
X162560000Y-231902000D03*
X162560000Y-234442000D03*
X162560000Y-236982000D03*
X162560000Y-239522000D03*
X162560000Y-242062000D03*
X162560000Y-244602000D03*
X162560000Y-247142000D03*
X162560000Y-249682000D03*
X162560000Y-252222000D03*
X162560000Y-254762000D03*
X162560000Y-257302000D03*
%TO.C,P1_4*%
X163830000Y-44348400D03*
%TO.C,J1_24*%
X165100000Y-97282000D03*
X165100000Y-99822000D03*
X165100000Y-102362000D03*
X165100000Y-104902000D03*
X165100000Y-107442000D03*
X165100000Y-109982000D03*
X165100000Y-112522000D03*
X165100000Y-115062000D03*
X165100000Y-117602000D03*
X165100000Y-120142000D03*
X165100000Y-122682000D03*
X165100000Y-125222000D03*
X165100000Y-127762000D03*
X165100000Y-130302000D03*
X165100000Y-132842000D03*
X165100000Y-135382000D03*
X165100000Y-137922000D03*
X165100000Y-140462000D03*
X165100000Y-143002000D03*
X165100000Y-145542000D03*
X165100000Y-148082000D03*
X165100000Y-150622000D03*
X165100000Y-153162000D03*
X165100000Y-155702000D03*
X165100000Y-158242000D03*
X165100000Y-160782000D03*
X165100000Y-163322000D03*
X165100000Y-165862000D03*
X165100000Y-168402000D03*
X165100000Y-170942000D03*
X165100000Y-173482000D03*
X165100000Y-176022000D03*
X165100000Y-178562000D03*
X165100000Y-181102000D03*
X165100000Y-183642000D03*
X165100000Y-186182000D03*
X165100000Y-188722000D03*
X165100000Y-191262000D03*
X165100000Y-193802000D03*
X165100000Y-196342000D03*
%TO.C,J2_24*%
X165100000Y-198882000D03*
X165100000Y-201422000D03*
X165100000Y-203962000D03*
X165100000Y-206502000D03*
X165100000Y-209042000D03*
X165100000Y-211582000D03*
X165100000Y-214122000D03*
X165100000Y-216662000D03*
X165100000Y-219202000D03*
X165100000Y-221742000D03*
X165100000Y-224282000D03*
X165100000Y-226822000D03*
X165100000Y-229362000D03*
X165100000Y-231902000D03*
X165100000Y-234442000D03*
X165100000Y-236982000D03*
X165100000Y-239522000D03*
X165100000Y-242062000D03*
X165100000Y-244602000D03*
X165100000Y-247142000D03*
X165100000Y-249682000D03*
X165100000Y-252222000D03*
X165100000Y-254762000D03*
X165100000Y-257302000D03*
%TO.C,P1_4*%
X166370000Y-44348400D03*
%TO.C,J1_24*%
X167640000Y-97282000D03*
X167640000Y-99822000D03*
X167640000Y-102362000D03*
X167640000Y-104902000D03*
X167640000Y-107442000D03*
X167640000Y-109982000D03*
X167640000Y-112522000D03*
X167640000Y-115062000D03*
X167640000Y-117602000D03*
X167640000Y-120142000D03*
X167640000Y-122682000D03*
X167640000Y-125222000D03*
X167640000Y-127762000D03*
X167640000Y-130302000D03*
X167640000Y-132842000D03*
X167640000Y-135382000D03*
X167640000Y-137922000D03*
X167640000Y-140462000D03*
X167640000Y-143002000D03*
X167640000Y-145542000D03*
X167640000Y-148082000D03*
X167640000Y-150622000D03*
X167640000Y-153162000D03*
X167640000Y-155702000D03*
X167640000Y-158242000D03*
X167640000Y-160782000D03*
X167640000Y-163322000D03*
X167640000Y-165862000D03*
X167640000Y-168402000D03*
X167640000Y-170942000D03*
X167640000Y-173482000D03*
X167640000Y-176022000D03*
X167640000Y-178562000D03*
X167640000Y-181102000D03*
X167640000Y-183642000D03*
X167640000Y-186182000D03*
X167640000Y-188722000D03*
X167640000Y-191262000D03*
X167640000Y-193802000D03*
X167640000Y-196342000D03*
%TO.C,J2_24*%
X167640000Y-198882000D03*
X167640000Y-201422000D03*
X167640000Y-203962000D03*
X167640000Y-206502000D03*
X167640000Y-209042000D03*
X167640000Y-211582000D03*
X167640000Y-214122000D03*
X167640000Y-216662000D03*
X167640000Y-219202000D03*
X167640000Y-221742000D03*
X167640000Y-224282000D03*
X167640000Y-226822000D03*
X167640000Y-229362000D03*
X167640000Y-231902000D03*
X167640000Y-234442000D03*
X167640000Y-236982000D03*
X167640000Y-239522000D03*
X167640000Y-242062000D03*
X167640000Y-244602000D03*
X167640000Y-247142000D03*
X167640000Y-249682000D03*
X167640000Y-252222000D03*
X167640000Y-254762000D03*
X167640000Y-257302000D03*
%TO.C,P1_4*%
X168910000Y-44348400D03*
%TO.C,J1_25*%
X170180000Y-97282000D03*
X170180000Y-99822000D03*
X170180000Y-102362000D03*
X170180000Y-104902000D03*
X170180000Y-107442000D03*
X170180000Y-109982000D03*
X170180000Y-112522000D03*
X170180000Y-115062000D03*
X170180000Y-117602000D03*
X170180000Y-120142000D03*
X170180000Y-122682000D03*
X170180000Y-125222000D03*
X170180000Y-127762000D03*
X170180000Y-130302000D03*
X170180000Y-132842000D03*
X170180000Y-135382000D03*
X170180000Y-137922000D03*
X170180000Y-140462000D03*
X170180000Y-143002000D03*
X170180000Y-145542000D03*
X170180000Y-148082000D03*
X170180000Y-150622000D03*
X170180000Y-153162000D03*
X170180000Y-155702000D03*
X170180000Y-158242000D03*
X170180000Y-160782000D03*
X170180000Y-163322000D03*
X170180000Y-165862000D03*
X170180000Y-168402000D03*
X170180000Y-170942000D03*
X170180000Y-173482000D03*
X170180000Y-176022000D03*
X170180000Y-178562000D03*
X170180000Y-181102000D03*
X170180000Y-183642000D03*
X170180000Y-186182000D03*
X170180000Y-188722000D03*
X170180000Y-191262000D03*
X170180000Y-193802000D03*
X170180000Y-196342000D03*
%TO.C,J2_25*%
X170180000Y-198882000D03*
X170180000Y-201422000D03*
X170180000Y-203962000D03*
X170180000Y-206502000D03*
X170180000Y-209042000D03*
X170180000Y-211582000D03*
X170180000Y-214122000D03*
X170180000Y-216662000D03*
X170180000Y-219202000D03*
X170180000Y-221742000D03*
X170180000Y-224282000D03*
X170180000Y-226822000D03*
X170180000Y-229362000D03*
X170180000Y-231902000D03*
X170180000Y-234442000D03*
X170180000Y-236982000D03*
X170180000Y-239522000D03*
X170180000Y-242062000D03*
X170180000Y-244602000D03*
X170180000Y-247142000D03*
X170180000Y-249682000D03*
X170180000Y-252222000D03*
X170180000Y-254762000D03*
X170180000Y-257302000D03*
%TO.C,P1_4*%
X171450000Y-44348400D03*
%TO.C,J1_25*%
X172720000Y-97282000D03*
X172720000Y-99822000D03*
X172720000Y-102362000D03*
X172720000Y-104902000D03*
X172720000Y-107442000D03*
X172720000Y-109982000D03*
X172720000Y-112522000D03*
X172720000Y-115062000D03*
X172720000Y-117602000D03*
X172720000Y-120142000D03*
X172720000Y-122682000D03*
X172720000Y-125222000D03*
X172720000Y-127762000D03*
X172720000Y-130302000D03*
X172720000Y-132842000D03*
X172720000Y-135382000D03*
X172720000Y-137922000D03*
X172720000Y-140462000D03*
X172720000Y-143002000D03*
X172720000Y-145542000D03*
X172720000Y-148082000D03*
X172720000Y-150622000D03*
X172720000Y-153162000D03*
X172720000Y-155702000D03*
X172720000Y-158242000D03*
X172720000Y-160782000D03*
X172720000Y-163322000D03*
X172720000Y-165862000D03*
X172720000Y-168402000D03*
X172720000Y-170942000D03*
X172720000Y-173482000D03*
X172720000Y-176022000D03*
X172720000Y-178562000D03*
X172720000Y-181102000D03*
X172720000Y-183642000D03*
X172720000Y-186182000D03*
X172720000Y-188722000D03*
X172720000Y-191262000D03*
X172720000Y-193802000D03*
X172720000Y-196342000D03*
%TO.C,J2_25*%
X172720000Y-198882000D03*
X172720000Y-201422000D03*
X172720000Y-203962000D03*
X172720000Y-206502000D03*
X172720000Y-209042000D03*
X172720000Y-211582000D03*
X172720000Y-214122000D03*
X172720000Y-216662000D03*
X172720000Y-219202000D03*
X172720000Y-221742000D03*
X172720000Y-224282000D03*
X172720000Y-226822000D03*
X172720000Y-229362000D03*
X172720000Y-231902000D03*
X172720000Y-234442000D03*
X172720000Y-236982000D03*
X172720000Y-239522000D03*
X172720000Y-242062000D03*
X172720000Y-244602000D03*
X172720000Y-247142000D03*
X172720000Y-249682000D03*
X172720000Y-252222000D03*
X172720000Y-254762000D03*
X172720000Y-257302000D03*
%TO.C,P1_4*%
X173990000Y-44348400D03*
%TO.C,J1_26*%
X175260000Y-97282000D03*
X175260000Y-99822000D03*
X175260000Y-102362000D03*
X175260000Y-104902000D03*
X175260000Y-107442000D03*
X175260000Y-109982000D03*
X175260000Y-112522000D03*
X175260000Y-115062000D03*
X175260000Y-117602000D03*
X175260000Y-120142000D03*
X175260000Y-122682000D03*
X175260000Y-125222000D03*
X175260000Y-127762000D03*
X175260000Y-130302000D03*
X175260000Y-132842000D03*
X175260000Y-135382000D03*
X175260000Y-137922000D03*
X175260000Y-140462000D03*
X175260000Y-143002000D03*
X175260000Y-145542000D03*
X175260000Y-148082000D03*
X175260000Y-150622000D03*
X175260000Y-153162000D03*
X175260000Y-155702000D03*
X175260000Y-158242000D03*
X175260000Y-160782000D03*
X175260000Y-163322000D03*
X175260000Y-165862000D03*
X175260000Y-168402000D03*
X175260000Y-170942000D03*
X175260000Y-173482000D03*
X175260000Y-176022000D03*
X175260000Y-178562000D03*
X175260000Y-181102000D03*
X175260000Y-183642000D03*
X175260000Y-186182000D03*
X175260000Y-188722000D03*
X175260000Y-191262000D03*
X175260000Y-193802000D03*
X175260000Y-196342000D03*
%TO.C,J2_26*%
X175260000Y-198882000D03*
X175260000Y-201422000D03*
X175260000Y-203962000D03*
X175260000Y-206502000D03*
X175260000Y-209042000D03*
X175260000Y-211582000D03*
X175260000Y-214122000D03*
X175260000Y-216662000D03*
X175260000Y-219202000D03*
X175260000Y-221742000D03*
X175260000Y-224282000D03*
X175260000Y-226822000D03*
X175260000Y-229362000D03*
X175260000Y-231902000D03*
X175260000Y-234442000D03*
X175260000Y-236982000D03*
X175260000Y-239522000D03*
X175260000Y-242062000D03*
X175260000Y-244602000D03*
X175260000Y-247142000D03*
X175260000Y-249682000D03*
X175260000Y-252222000D03*
X175260000Y-254762000D03*
X175260000Y-257302000D03*
%TO.C,P1_4*%
X176530000Y-44348400D03*
%TO.C,J1_26*%
X177800000Y-97282000D03*
X177800000Y-99822000D03*
X177800000Y-102362000D03*
X177800000Y-104902000D03*
X177800000Y-107442000D03*
X177800000Y-109982000D03*
X177800000Y-112522000D03*
X177800000Y-115062000D03*
X177800000Y-117602000D03*
X177800000Y-120142000D03*
X177800000Y-122682000D03*
X177800000Y-125222000D03*
X177800000Y-127762000D03*
X177800000Y-130302000D03*
X177800000Y-132842000D03*
X177800000Y-135382000D03*
X177800000Y-137922000D03*
X177800000Y-140462000D03*
X177800000Y-143002000D03*
X177800000Y-145542000D03*
X177800000Y-148082000D03*
X177800000Y-150622000D03*
X177800000Y-153162000D03*
X177800000Y-155702000D03*
X177800000Y-158242000D03*
X177800000Y-160782000D03*
X177800000Y-163322000D03*
X177800000Y-165862000D03*
X177800000Y-168402000D03*
X177800000Y-170942000D03*
X177800000Y-173482000D03*
X177800000Y-176022000D03*
X177800000Y-178562000D03*
X177800000Y-181102000D03*
X177800000Y-183642000D03*
X177800000Y-186182000D03*
X177800000Y-188722000D03*
X177800000Y-191262000D03*
X177800000Y-193802000D03*
X177800000Y-196342000D03*
%TO.C,J2_26*%
X177800000Y-198882000D03*
X177800000Y-201422000D03*
X177800000Y-203962000D03*
X177800000Y-206502000D03*
X177800000Y-209042000D03*
X177800000Y-211582000D03*
X177800000Y-214122000D03*
X177800000Y-216662000D03*
X177800000Y-219202000D03*
X177800000Y-221742000D03*
X177800000Y-224282000D03*
X177800000Y-226822000D03*
X177800000Y-229362000D03*
X177800000Y-231902000D03*
X177800000Y-234442000D03*
X177800000Y-236982000D03*
X177800000Y-239522000D03*
X177800000Y-242062000D03*
X177800000Y-244602000D03*
X177800000Y-247142000D03*
X177800000Y-249682000D03*
X177800000Y-252222000D03*
X177800000Y-254762000D03*
X177800000Y-257302000D03*
%TO.C,P4_4*%
X180340000Y-48971200D03*
X180340000Y-51511200D03*
X180340000Y-54051200D03*
X180340000Y-56591200D03*
X180340000Y-59131200D03*
X180340000Y-61671200D03*
X180340000Y-64211200D03*
X180340000Y-66751200D03*
X180340000Y-69291200D03*
X180340000Y-71831200D03*
%TO.C,J1_27*%
X180340000Y-97282000D03*
X180340000Y-99822000D03*
X180340000Y-102362000D03*
X180340000Y-104902000D03*
X180340000Y-107442000D03*
X180340000Y-109982000D03*
X180340000Y-112522000D03*
X180340000Y-115062000D03*
X180340000Y-117602000D03*
X180340000Y-120142000D03*
X180340000Y-122682000D03*
X180340000Y-125222000D03*
X180340000Y-127762000D03*
X180340000Y-130302000D03*
X180340000Y-132842000D03*
X180340000Y-135382000D03*
X180340000Y-137922000D03*
X180340000Y-140462000D03*
X180340000Y-143002000D03*
X180340000Y-145542000D03*
X180340000Y-148082000D03*
X180340000Y-150622000D03*
X180340000Y-153162000D03*
X180340000Y-155702000D03*
X180340000Y-158242000D03*
X180340000Y-160782000D03*
X180340000Y-163322000D03*
X180340000Y-165862000D03*
X180340000Y-168402000D03*
X180340000Y-170942000D03*
X180340000Y-173482000D03*
X180340000Y-176022000D03*
X180340000Y-178562000D03*
X180340000Y-181102000D03*
X180340000Y-183642000D03*
X180340000Y-186182000D03*
X180340000Y-188722000D03*
X180340000Y-191262000D03*
X180340000Y-193802000D03*
X180340000Y-196342000D03*
%TO.C,J2_27*%
X180340000Y-198882000D03*
X180340000Y-201422000D03*
X180340000Y-203962000D03*
X180340000Y-206502000D03*
X180340000Y-209042000D03*
X180340000Y-211582000D03*
X180340000Y-214122000D03*
X180340000Y-216662000D03*
X180340000Y-219202000D03*
X180340000Y-221742000D03*
X180340000Y-224282000D03*
X180340000Y-226822000D03*
X180340000Y-229362000D03*
X180340000Y-231902000D03*
X180340000Y-234442000D03*
X180340000Y-236982000D03*
X180340000Y-239522000D03*
X180340000Y-242062000D03*
X180340000Y-244602000D03*
X180340000Y-247142000D03*
X180340000Y-249682000D03*
X180340000Y-252222000D03*
X180340000Y-254762000D03*
X180340000Y-257302000D03*
%TO.C,J1_27*%
X182880000Y-97282000D03*
X182880000Y-99822000D03*
X182880000Y-102362000D03*
X182880000Y-104902000D03*
X182880000Y-107442000D03*
X182880000Y-109982000D03*
X182880000Y-112522000D03*
X182880000Y-115062000D03*
X182880000Y-117602000D03*
X182880000Y-120142000D03*
X182880000Y-122682000D03*
X182880000Y-125222000D03*
X182880000Y-127762000D03*
X182880000Y-130302000D03*
X182880000Y-132842000D03*
X182880000Y-135382000D03*
X182880000Y-137922000D03*
X182880000Y-140462000D03*
X182880000Y-143002000D03*
X182880000Y-145542000D03*
X182880000Y-148082000D03*
X182880000Y-150622000D03*
X182880000Y-153162000D03*
X182880000Y-155702000D03*
X182880000Y-158242000D03*
X182880000Y-160782000D03*
X182880000Y-163322000D03*
X182880000Y-165862000D03*
X182880000Y-168402000D03*
X182880000Y-170942000D03*
X182880000Y-173482000D03*
X182880000Y-176022000D03*
X182880000Y-178562000D03*
X182880000Y-181102000D03*
X182880000Y-183642000D03*
X182880000Y-186182000D03*
X182880000Y-188722000D03*
X182880000Y-191262000D03*
X182880000Y-193802000D03*
X182880000Y-196342000D03*
%TO.C,J2_27*%
X182880000Y-198882000D03*
X182880000Y-201422000D03*
X182880000Y-203962000D03*
X182880000Y-206502000D03*
X182880000Y-209042000D03*
X182880000Y-211582000D03*
X182880000Y-214122000D03*
X182880000Y-216662000D03*
X182880000Y-219202000D03*
X182880000Y-221742000D03*
X182880000Y-224282000D03*
X182880000Y-226822000D03*
X182880000Y-229362000D03*
X182880000Y-231902000D03*
X182880000Y-234442000D03*
X182880000Y-236982000D03*
X182880000Y-239522000D03*
X182880000Y-242062000D03*
X182880000Y-244602000D03*
X182880000Y-247142000D03*
X182880000Y-249682000D03*
X182880000Y-252222000D03*
X182880000Y-254762000D03*
X182880000Y-257302000D03*
%TO.C,J1_28*%
X185420000Y-97282000D03*
X185420000Y-99822000D03*
X185420000Y-102362000D03*
X185420000Y-104902000D03*
X185420000Y-107442000D03*
X185420000Y-109982000D03*
X185420000Y-112522000D03*
X185420000Y-115062000D03*
X185420000Y-117602000D03*
X185420000Y-120142000D03*
X185420000Y-122682000D03*
X185420000Y-125222000D03*
X185420000Y-127762000D03*
X185420000Y-130302000D03*
X185420000Y-132842000D03*
X185420000Y-135382000D03*
X185420000Y-137922000D03*
X185420000Y-140462000D03*
X185420000Y-143002000D03*
X185420000Y-145542000D03*
X185420000Y-148082000D03*
X185420000Y-150622000D03*
X185420000Y-153162000D03*
X185420000Y-155702000D03*
X185420000Y-158242000D03*
X185420000Y-160782000D03*
X185420000Y-163322000D03*
X185420000Y-165862000D03*
X185420000Y-168402000D03*
X185420000Y-170942000D03*
X185420000Y-173482000D03*
X185420000Y-176022000D03*
X185420000Y-178562000D03*
X185420000Y-181102000D03*
X185420000Y-183642000D03*
X185420000Y-186182000D03*
X185420000Y-188722000D03*
X185420000Y-191262000D03*
X185420000Y-193802000D03*
X185420000Y-196342000D03*
%TO.C,J2_28*%
X185420000Y-198882000D03*
X185420000Y-201422000D03*
X185420000Y-203962000D03*
X185420000Y-206502000D03*
X185420000Y-209042000D03*
X185420000Y-211582000D03*
X185420000Y-214122000D03*
X185420000Y-216662000D03*
X185420000Y-219202000D03*
X185420000Y-221742000D03*
X185420000Y-224282000D03*
X185420000Y-226822000D03*
X185420000Y-229362000D03*
X185420000Y-231902000D03*
X185420000Y-234442000D03*
X185420000Y-236982000D03*
X185420000Y-239522000D03*
X185420000Y-242062000D03*
X185420000Y-244602000D03*
X185420000Y-247142000D03*
X185420000Y-249682000D03*
X185420000Y-252222000D03*
X185420000Y-254762000D03*
X185420000Y-257302000D03*
%TO.C,J1_28*%
X187960000Y-97282000D03*
X187960000Y-99822000D03*
X187960000Y-102362000D03*
X187960000Y-104902000D03*
X187960000Y-107442000D03*
X187960000Y-109982000D03*
X187960000Y-112522000D03*
X187960000Y-115062000D03*
X187960000Y-117602000D03*
X187960000Y-120142000D03*
X187960000Y-122682000D03*
X187960000Y-125222000D03*
X187960000Y-127762000D03*
X187960000Y-130302000D03*
X187960000Y-132842000D03*
X187960000Y-135382000D03*
X187960000Y-137922000D03*
X187960000Y-140462000D03*
X187960000Y-143002000D03*
X187960000Y-145542000D03*
X187960000Y-148082000D03*
X187960000Y-150622000D03*
X187960000Y-153162000D03*
X187960000Y-155702000D03*
X187960000Y-158242000D03*
X187960000Y-160782000D03*
X187960000Y-163322000D03*
X187960000Y-165862000D03*
X187960000Y-168402000D03*
X187960000Y-170942000D03*
X187960000Y-173482000D03*
X187960000Y-176022000D03*
X187960000Y-178562000D03*
X187960000Y-181102000D03*
X187960000Y-183642000D03*
X187960000Y-186182000D03*
X187960000Y-188722000D03*
X187960000Y-191262000D03*
X187960000Y-193802000D03*
X187960000Y-196342000D03*
%TO.C,J2_28*%
X187960000Y-198882000D03*
X187960000Y-201422000D03*
X187960000Y-203962000D03*
X187960000Y-206502000D03*
X187960000Y-209042000D03*
X187960000Y-211582000D03*
X187960000Y-214122000D03*
X187960000Y-216662000D03*
X187960000Y-219202000D03*
X187960000Y-221742000D03*
X187960000Y-224282000D03*
X187960000Y-226822000D03*
X187960000Y-229362000D03*
X187960000Y-231902000D03*
X187960000Y-234442000D03*
X187960000Y-236982000D03*
X187960000Y-239522000D03*
X187960000Y-242062000D03*
X187960000Y-244602000D03*
X187960000Y-247142000D03*
X187960000Y-249682000D03*
X187960000Y-252222000D03*
X187960000Y-254762000D03*
X187960000Y-257302000D03*
%TO.C,J1_29*%
X190500000Y-97282000D03*
X190500000Y-99822000D03*
X190500000Y-102362000D03*
X190500000Y-104902000D03*
X190500000Y-107442000D03*
X190500000Y-109982000D03*
X190500000Y-112522000D03*
X190500000Y-115062000D03*
X190500000Y-117602000D03*
X190500000Y-120142000D03*
X190500000Y-122682000D03*
X190500000Y-125222000D03*
X190500000Y-127762000D03*
X190500000Y-130302000D03*
X190500000Y-132842000D03*
X190500000Y-135382000D03*
X190500000Y-137922000D03*
X190500000Y-140462000D03*
X190500000Y-143002000D03*
X190500000Y-145542000D03*
X190500000Y-148082000D03*
X190500000Y-150622000D03*
X190500000Y-153162000D03*
X190500000Y-155702000D03*
X190500000Y-158242000D03*
X190500000Y-160782000D03*
X190500000Y-163322000D03*
X190500000Y-165862000D03*
X190500000Y-168402000D03*
X190500000Y-170942000D03*
X190500000Y-173482000D03*
X190500000Y-176022000D03*
X190500000Y-178562000D03*
X190500000Y-181102000D03*
X190500000Y-183642000D03*
X190500000Y-186182000D03*
X190500000Y-188722000D03*
X190500000Y-191262000D03*
X190500000Y-193802000D03*
X190500000Y-196342000D03*
%TO.C,J2_29*%
X190500000Y-198882000D03*
X190500000Y-201422000D03*
X190500000Y-203962000D03*
X190500000Y-206502000D03*
X190500000Y-209042000D03*
X190500000Y-211582000D03*
X190500000Y-214122000D03*
X190500000Y-216662000D03*
X190500000Y-219202000D03*
X190500000Y-221742000D03*
X190500000Y-224282000D03*
X190500000Y-226822000D03*
X190500000Y-229362000D03*
X190500000Y-231902000D03*
X190500000Y-234442000D03*
X190500000Y-236982000D03*
X190500000Y-239522000D03*
X190500000Y-242062000D03*
X190500000Y-244602000D03*
X190500000Y-247142000D03*
X190500000Y-249682000D03*
X190500000Y-252222000D03*
X190500000Y-254762000D03*
X190500000Y-257302000D03*
%TO.C,J1_29*%
X193040000Y-97282000D03*
X193040000Y-99822000D03*
X193040000Y-102362000D03*
X193040000Y-104902000D03*
X193040000Y-107442000D03*
X193040000Y-109982000D03*
X193040000Y-112522000D03*
X193040000Y-115062000D03*
X193040000Y-117602000D03*
X193040000Y-120142000D03*
X193040000Y-122682000D03*
X193040000Y-125222000D03*
X193040000Y-127762000D03*
X193040000Y-130302000D03*
X193040000Y-132842000D03*
X193040000Y-135382000D03*
X193040000Y-137922000D03*
X193040000Y-140462000D03*
X193040000Y-143002000D03*
X193040000Y-145542000D03*
X193040000Y-148082000D03*
X193040000Y-150622000D03*
X193040000Y-153162000D03*
X193040000Y-155702000D03*
X193040000Y-158242000D03*
X193040000Y-160782000D03*
X193040000Y-163322000D03*
X193040000Y-165862000D03*
X193040000Y-168402000D03*
X193040000Y-170942000D03*
X193040000Y-173482000D03*
X193040000Y-176022000D03*
X193040000Y-178562000D03*
X193040000Y-181102000D03*
X193040000Y-183642000D03*
X193040000Y-186182000D03*
X193040000Y-188722000D03*
X193040000Y-191262000D03*
X193040000Y-193802000D03*
X193040000Y-196342000D03*
%TO.C,J2_29*%
X193040000Y-198882000D03*
X193040000Y-201422000D03*
X193040000Y-203962000D03*
X193040000Y-206502000D03*
X193040000Y-209042000D03*
X193040000Y-211582000D03*
X193040000Y-214122000D03*
X193040000Y-216662000D03*
X193040000Y-219202000D03*
X193040000Y-221742000D03*
X193040000Y-224282000D03*
X193040000Y-226822000D03*
X193040000Y-229362000D03*
X193040000Y-231902000D03*
X193040000Y-234442000D03*
X193040000Y-236982000D03*
X193040000Y-239522000D03*
X193040000Y-242062000D03*
X193040000Y-244602000D03*
X193040000Y-247142000D03*
X193040000Y-249682000D03*
X193040000Y-252222000D03*
X193040000Y-254762000D03*
X193040000Y-257302000D03*
%TO.C,J1_30*%
X195580000Y-97282000D03*
X195580000Y-99822000D03*
X195580000Y-102362000D03*
X195580000Y-104902000D03*
X195580000Y-107442000D03*
X195580000Y-109982000D03*
X195580000Y-112522000D03*
X195580000Y-115062000D03*
X195580000Y-117602000D03*
X195580000Y-120142000D03*
X195580000Y-122682000D03*
X195580000Y-125222000D03*
X195580000Y-127762000D03*
X195580000Y-130302000D03*
X195580000Y-132842000D03*
X195580000Y-135382000D03*
X195580000Y-137922000D03*
X195580000Y-140462000D03*
X195580000Y-143002000D03*
X195580000Y-145542000D03*
X195580000Y-148082000D03*
X195580000Y-150622000D03*
X195580000Y-153162000D03*
X195580000Y-155702000D03*
X195580000Y-158242000D03*
X195580000Y-160782000D03*
X195580000Y-163322000D03*
X195580000Y-165862000D03*
X195580000Y-168402000D03*
X195580000Y-170942000D03*
X195580000Y-173482000D03*
X195580000Y-176022000D03*
X195580000Y-178562000D03*
X195580000Y-181102000D03*
X195580000Y-183642000D03*
X195580000Y-186182000D03*
X195580000Y-188722000D03*
X195580000Y-191262000D03*
X195580000Y-193802000D03*
X195580000Y-196342000D03*
%TO.C,J2_30*%
X195580000Y-198882000D03*
X195580000Y-201422000D03*
X195580000Y-203962000D03*
X195580000Y-206502000D03*
X195580000Y-209042000D03*
X195580000Y-211582000D03*
X195580000Y-214122000D03*
X195580000Y-216662000D03*
X195580000Y-219202000D03*
X195580000Y-221742000D03*
X195580000Y-224282000D03*
X195580000Y-226822000D03*
X195580000Y-229362000D03*
X195580000Y-231902000D03*
X195580000Y-234442000D03*
X195580000Y-236982000D03*
X195580000Y-239522000D03*
X195580000Y-242062000D03*
X195580000Y-244602000D03*
X195580000Y-247142000D03*
X195580000Y-249682000D03*
X195580000Y-252222000D03*
X195580000Y-254762000D03*
X195580000Y-257302000D03*
%TO.C,J1_30*%
X198120000Y-97282000D03*
X198120000Y-99822000D03*
X198120000Y-102362000D03*
X198120000Y-104902000D03*
X198120000Y-107442000D03*
X198120000Y-109982000D03*
X198120000Y-112522000D03*
X198120000Y-115062000D03*
X198120000Y-117602000D03*
X198120000Y-120142000D03*
X198120000Y-122682000D03*
X198120000Y-125222000D03*
X198120000Y-127762000D03*
X198120000Y-130302000D03*
X198120000Y-132842000D03*
X198120000Y-135382000D03*
X198120000Y-137922000D03*
X198120000Y-140462000D03*
X198120000Y-143002000D03*
X198120000Y-145542000D03*
X198120000Y-148082000D03*
X198120000Y-150622000D03*
X198120000Y-153162000D03*
X198120000Y-155702000D03*
X198120000Y-158242000D03*
X198120000Y-160782000D03*
X198120000Y-163322000D03*
X198120000Y-165862000D03*
X198120000Y-168402000D03*
X198120000Y-170942000D03*
X198120000Y-173482000D03*
X198120000Y-176022000D03*
X198120000Y-178562000D03*
X198120000Y-181102000D03*
X198120000Y-183642000D03*
X198120000Y-186182000D03*
X198120000Y-188722000D03*
X198120000Y-191262000D03*
X198120000Y-193802000D03*
X198120000Y-196342000D03*
%TO.C,J2_30*%
X198120000Y-198882000D03*
X198120000Y-201422000D03*
X198120000Y-203962000D03*
X198120000Y-206502000D03*
X198120000Y-209042000D03*
X198120000Y-211582000D03*
X198120000Y-214122000D03*
X198120000Y-216662000D03*
X198120000Y-219202000D03*
X198120000Y-221742000D03*
X198120000Y-224282000D03*
X198120000Y-226822000D03*
X198120000Y-229362000D03*
X198120000Y-231902000D03*
X198120000Y-234442000D03*
X198120000Y-236982000D03*
X198120000Y-239522000D03*
X198120000Y-242062000D03*
X198120000Y-244602000D03*
X198120000Y-247142000D03*
X198120000Y-249682000D03*
X198120000Y-252222000D03*
X198120000Y-254762000D03*
X198120000Y-257302000D03*
%TO.C,J1_31*%
X200660000Y-97282000D03*
X200660000Y-99822000D03*
X200660000Y-102362000D03*
X200660000Y-104902000D03*
X200660000Y-107442000D03*
X200660000Y-109982000D03*
X200660000Y-112522000D03*
X200660000Y-115062000D03*
X200660000Y-117602000D03*
X200660000Y-120142000D03*
X200660000Y-122682000D03*
X200660000Y-125222000D03*
X200660000Y-127762000D03*
X200660000Y-130302000D03*
X200660000Y-132842000D03*
X200660000Y-135382000D03*
X200660000Y-137922000D03*
X200660000Y-140462000D03*
X200660000Y-143002000D03*
X200660000Y-145542000D03*
X200660000Y-148082000D03*
X200660000Y-150622000D03*
X200660000Y-153162000D03*
X200660000Y-155702000D03*
X200660000Y-158242000D03*
X200660000Y-160782000D03*
X200660000Y-163322000D03*
X200660000Y-165862000D03*
X200660000Y-168402000D03*
X200660000Y-170942000D03*
X200660000Y-173482000D03*
X200660000Y-176022000D03*
X200660000Y-178562000D03*
X200660000Y-181102000D03*
X200660000Y-183642000D03*
X200660000Y-186182000D03*
X200660000Y-188722000D03*
X200660000Y-191262000D03*
X200660000Y-193802000D03*
X200660000Y-196342000D03*
%TO.C,J2_31*%
X200660000Y-198882000D03*
X200660000Y-201422000D03*
X200660000Y-203962000D03*
X200660000Y-206502000D03*
X200660000Y-209042000D03*
X200660000Y-211582000D03*
X200660000Y-214122000D03*
X200660000Y-216662000D03*
X200660000Y-219202000D03*
X200660000Y-221742000D03*
X200660000Y-224282000D03*
X200660000Y-226822000D03*
X200660000Y-229362000D03*
X200660000Y-231902000D03*
X200660000Y-234442000D03*
X200660000Y-236982000D03*
X200660000Y-239522000D03*
X200660000Y-242062000D03*
X200660000Y-244602000D03*
X200660000Y-247142000D03*
X200660000Y-249682000D03*
X200660000Y-252222000D03*
X200660000Y-254762000D03*
X200660000Y-257302000D03*
%TO.C,J1_31*%
X203200000Y-97282000D03*
X203200000Y-99822000D03*
X203200000Y-102362000D03*
X203200000Y-104902000D03*
X203200000Y-107442000D03*
X203200000Y-109982000D03*
X203200000Y-112522000D03*
X203200000Y-115062000D03*
X203200000Y-117602000D03*
X203200000Y-120142000D03*
X203200000Y-122682000D03*
X203200000Y-125222000D03*
X203200000Y-127762000D03*
X203200000Y-130302000D03*
X203200000Y-132842000D03*
X203200000Y-135382000D03*
X203200000Y-137922000D03*
X203200000Y-140462000D03*
X203200000Y-143002000D03*
X203200000Y-145542000D03*
X203200000Y-148082000D03*
X203200000Y-150622000D03*
X203200000Y-153162000D03*
X203200000Y-155702000D03*
X203200000Y-158242000D03*
X203200000Y-160782000D03*
X203200000Y-163322000D03*
X203200000Y-165862000D03*
X203200000Y-168402000D03*
X203200000Y-170942000D03*
X203200000Y-173482000D03*
X203200000Y-176022000D03*
X203200000Y-178562000D03*
X203200000Y-181102000D03*
X203200000Y-183642000D03*
X203200000Y-186182000D03*
X203200000Y-188722000D03*
X203200000Y-191262000D03*
X203200000Y-193802000D03*
X203200000Y-196342000D03*
%TO.C,J2_31*%
X203200000Y-198882000D03*
X203200000Y-201422000D03*
X203200000Y-203962000D03*
X203200000Y-206502000D03*
X203200000Y-209042000D03*
X203200000Y-211582000D03*
X203200000Y-214122000D03*
X203200000Y-216662000D03*
X203200000Y-219202000D03*
X203200000Y-221742000D03*
X203200000Y-224282000D03*
X203200000Y-226822000D03*
X203200000Y-229362000D03*
X203200000Y-231902000D03*
X203200000Y-234442000D03*
X203200000Y-236982000D03*
X203200000Y-239522000D03*
X203200000Y-242062000D03*
X203200000Y-244602000D03*
X203200000Y-247142000D03*
X203200000Y-249682000D03*
X203200000Y-252222000D03*
X203200000Y-254762000D03*
X203200000Y-257302000D03*
%TO.C,J1_32*%
X205740000Y-97282000D03*
X205740000Y-99822000D03*
X205740000Y-102362000D03*
X205740000Y-104902000D03*
X205740000Y-107442000D03*
X205740000Y-109982000D03*
X205740000Y-112522000D03*
X205740000Y-115062000D03*
X205740000Y-117602000D03*
X205740000Y-120142000D03*
X205740000Y-122682000D03*
X205740000Y-125222000D03*
X205740000Y-127762000D03*
X205740000Y-130302000D03*
X205740000Y-132842000D03*
X205740000Y-135382000D03*
X205740000Y-137922000D03*
X205740000Y-140462000D03*
X205740000Y-143002000D03*
X205740000Y-145542000D03*
X205740000Y-148082000D03*
X205740000Y-150622000D03*
X205740000Y-153162000D03*
X205740000Y-155702000D03*
X205740000Y-158242000D03*
X205740000Y-160782000D03*
X205740000Y-163322000D03*
X205740000Y-165862000D03*
X205740000Y-168402000D03*
X205740000Y-170942000D03*
X205740000Y-173482000D03*
X205740000Y-176022000D03*
X205740000Y-178562000D03*
X205740000Y-181102000D03*
X205740000Y-183642000D03*
X205740000Y-186182000D03*
X205740000Y-188722000D03*
X205740000Y-191262000D03*
X205740000Y-193802000D03*
X205740000Y-196342000D03*
%TO.C,J2_32*%
X205740000Y-198882000D03*
X205740000Y-201422000D03*
X205740000Y-203962000D03*
X205740000Y-206502000D03*
X205740000Y-209042000D03*
X205740000Y-211582000D03*
X205740000Y-214122000D03*
X205740000Y-216662000D03*
X205740000Y-219202000D03*
X205740000Y-221742000D03*
X205740000Y-224282000D03*
X205740000Y-226822000D03*
X205740000Y-229362000D03*
X205740000Y-231902000D03*
X205740000Y-234442000D03*
X205740000Y-236982000D03*
X205740000Y-239522000D03*
X205740000Y-242062000D03*
X205740000Y-244602000D03*
X205740000Y-247142000D03*
X205740000Y-249682000D03*
X205740000Y-252222000D03*
X205740000Y-254762000D03*
X205740000Y-257302000D03*
%TO.C,J1_32*%
X208280000Y-97282000D03*
X208280000Y-99822000D03*
X208280000Y-102362000D03*
X208280000Y-104902000D03*
X208280000Y-107442000D03*
X208280000Y-109982000D03*
X208280000Y-112522000D03*
X208280000Y-115062000D03*
X208280000Y-117602000D03*
X208280000Y-120142000D03*
X208280000Y-122682000D03*
X208280000Y-125222000D03*
X208280000Y-127762000D03*
X208280000Y-130302000D03*
X208280000Y-132842000D03*
X208280000Y-135382000D03*
X208280000Y-137922000D03*
X208280000Y-140462000D03*
X208280000Y-143002000D03*
X208280000Y-145542000D03*
X208280000Y-148082000D03*
X208280000Y-150622000D03*
X208280000Y-153162000D03*
X208280000Y-155702000D03*
X208280000Y-158242000D03*
X208280000Y-160782000D03*
X208280000Y-163322000D03*
X208280000Y-165862000D03*
X208280000Y-168402000D03*
X208280000Y-170942000D03*
X208280000Y-173482000D03*
X208280000Y-176022000D03*
X208280000Y-178562000D03*
X208280000Y-181102000D03*
X208280000Y-183642000D03*
X208280000Y-186182000D03*
X208280000Y-188722000D03*
X208280000Y-191262000D03*
X208280000Y-193802000D03*
X208280000Y-196342000D03*
%TO.C,J2_32*%
X208280000Y-198882000D03*
X208280000Y-201422000D03*
X208280000Y-203962000D03*
X208280000Y-206502000D03*
X208280000Y-209042000D03*
X208280000Y-211582000D03*
X208280000Y-214122000D03*
X208280000Y-216662000D03*
X208280000Y-219202000D03*
X208280000Y-221742000D03*
X208280000Y-224282000D03*
X208280000Y-226822000D03*
X208280000Y-229362000D03*
X208280000Y-231902000D03*
X208280000Y-234442000D03*
X208280000Y-236982000D03*
X208280000Y-239522000D03*
X208280000Y-242062000D03*
X208280000Y-244602000D03*
X208280000Y-247142000D03*
X208280000Y-249682000D03*
X208280000Y-252222000D03*
X208280000Y-254762000D03*
X208280000Y-257302000D03*
%TO.C,P3_1*%
X233680000Y-125222000D03*
%TO.C,P4_1*%
X233680000Y-145542000D03*
%TO.C,P3_2*%
X233680000Y-209042000D03*
%TO.C,P4_2*%
X233680000Y-229362000D03*
%TO.C,P3_1*%
X236220000Y-125222000D03*
%TO.C,P4_1*%
X236220000Y-145542000D03*
%TO.C,P3_2*%
X236220000Y-209042000D03*
%TO.C,P4_2*%
X236220000Y-229362000D03*
%TO.C,P3_1*%
X238760000Y-125222000D03*
%TO.C,P4_1*%
X238760000Y-145542000D03*
%TO.C,P3_2*%
X238760000Y-209042000D03*
%TO.C,P4_2*%
X238760000Y-229362000D03*
%TO.C,J1*%
X238760000Y-257302000D03*
%TO.C,P3_1*%
X241300000Y-125222000D03*
%TO.C,P4_1*%
X241300000Y-145542000D03*
%TO.C,P3_2*%
X241300000Y-209042000D03*
%TO.C,P4_2*%
X241300000Y-229362000D03*
%TO.C,J1*%
X241300000Y-257302000D03*
%TO.C,P3_1*%
X243840000Y-125222000D03*
%TO.C,P4_1*%
X243840000Y-145542000D03*
%TO.C,P3_2*%
X243840000Y-209042000D03*
%TO.C,P4_2*%
X243840000Y-229362000D03*
%TO.C,J1*%
X243840000Y-257302000D03*
%TO.C,P3_1*%
X246380000Y-125222000D03*
%TO.C,P4_1*%
X246380000Y-145542000D03*
%TO.C,P3_2*%
X246380000Y-209042000D03*
%TO.C,P4_2*%
X246380000Y-229362000D03*
%TO.C,J1*%
X246380000Y-257302000D03*
%TO.C,P3_1*%
X248920000Y-125222000D03*
%TO.C,P4_1*%
X248920000Y-145542000D03*
%TO.C,P3_2*%
X248920000Y-209042000D03*
%TO.C,P4_2*%
X248920000Y-229362000D03*
%TO.C,J1*%
X248920000Y-257302000D03*
%TO.C,P3_1*%
X251460000Y-125222000D03*
%TO.C,P4_1*%
X251460000Y-145542000D03*
%TO.C,P3_2*%
X251460000Y-209042000D03*
%TO.C,P4_2*%
X251460000Y-229362000D03*
%TO.C,J1*%
X251460000Y-257302000D03*
%TO.C,P3_1*%
X254000000Y-125222000D03*
%TO.C,P4_1*%
X254000000Y-145542000D03*
%TO.C,P3_2*%
X254000000Y-209042000D03*
%TO.C,P4_2*%
X254000000Y-229362000D03*
%TO.C,P3_1*%
X256540000Y-125222000D03*
%TO.C,P4_1*%
X256540000Y-145542000D03*
%TO.C,P3_2*%
X256540000Y-209042000D03*
%TO.C,P4_2*%
X256540000Y-229362000D03*
%TO.C,P1_1*%
X261162800Y-129032000D03*
X261162800Y-131572000D03*
X261162800Y-134112000D03*
X261162800Y-136652000D03*
X261162800Y-139192000D03*
X261162800Y-141732000D03*
%TO.C,P1_2*%
X261162800Y-212852000D03*
X261162800Y-215392000D03*
X261162800Y-217932000D03*
X261162800Y-220472000D03*
X261162800Y-223012000D03*
X261162800Y-225552000D03*
M02*
